<svg width="14" height="13" viewBox="0 0 14 13" fill="none" xmlns="http://www.w3.org/2000/svg">
<path d="M6.96957 3.60547C8.69223 3.60547 10.1141 5.02734 10.1141 6.75C10.1141 8.5 8.69223 9.89453 6.96957 9.89453C5.21957 9.89453 3.82504 8.5 3.82504 6.75C3.82504 5.02734 5.21957 3.60547 6.96957 3.60547ZM6.96957 8.80078C8.09066 8.80078 8.99301 7.89844 8.99301 6.75C8.99301 5.62891 8.09066 4.72656 6.96957 4.72656C5.82113 4.72656 4.91879 5.62891 4.91879 6.75C4.91879 7.89844 5.84848 8.80078 6.96957 8.80078ZM10.9618 3.49609C10.9618 3.90625 10.6336 4.23438 10.2235 4.23438C9.81332 4.23438 9.4852 3.90625 9.4852 3.49609C9.4852 3.08594 9.81332 2.75781 10.2235 2.75781C10.6336 2.75781 10.9618 3.08594 10.9618 3.49609ZM13.0399 4.23438C13.0946 5.24609 13.0946 8.28125 13.0399 9.29297C12.9852 10.2773 12.7664 11.125 12.0555 11.8633C11.3446 12.5742 10.4696 12.793 9.4852 12.8477C8.47348 12.9023 5.43832 12.9023 4.4266 12.8477C3.44223 12.793 2.59457 12.5742 1.85629 11.8633C1.14535 11.125 0.926602 10.2773 0.871914 9.29297C0.817227 8.28125 0.817227 5.24609 0.871914 4.23438C0.926602 3.25 1.14535 2.375 1.85629 1.66406C2.59457 0.953125 3.44223 0.734375 4.4266 0.679688C5.43832 0.625 8.47348 0.625 9.4852 0.679688C10.4696 0.734375 11.3446 0.953125 12.0555 1.66406C12.7664 2.375 12.9852 3.25 13.0399 4.23438ZM11.7274 10.3594C12.0555 9.56641 11.9735 7.65234 11.9735 6.75C11.9735 5.875 12.0555 3.96094 11.7274 3.14062C11.5086 2.62109 11.0985 2.18359 10.5789 1.99219C9.75863 1.66406 7.84457 1.74609 6.96957 1.74609C6.06723 1.74609 4.15316 1.66406 3.3602 1.99219C2.81332 2.21094 2.40316 2.62109 2.18441 3.14062C1.85629 3.96094 1.93832 5.875 1.93832 6.75C1.93832 7.65234 1.85629 9.56641 2.18441 10.3594C2.40316 10.9062 2.81332 11.3164 3.3602 11.5352C4.15316 11.8633 6.06723 11.7812 6.96957 11.7812C7.84457 11.7812 9.75863 11.8633 10.5789 11.5352C11.0985 11.3164 11.536 10.9062 11.7274 10.3594Z" fill="#001B42"/>
</svg>
