<svg width="13" height="13" viewBox="0 0 13 13" fill="none" xmlns="http://www.w3.org/2000/svg">
<path d="M2.78457 13H0.241601V4.82422H2.78457V13ZM1.49941 3.73047C0.706445 3.73047 0.0501952 3.04688 0.0501952 2.22656C0.0501952 1.43359 0.706445 0.777344 1.49941 0.777344C2.31973 0.777344 2.97598 1.43359 2.97598 2.22656C2.97598 3.04688 2.31973 3.73047 1.49941 3.73047ZM12.2729 13H9.75723V9.03516C9.75723 8.07812 9.72988 6.875 8.41738 6.875C7.10488 6.875 6.91348 7.88672 6.91348 8.95312V13H4.37051V4.82422H6.8041V5.94531H6.83145C7.18691 5.31641 8.00723 4.63281 9.2377 4.63281C11.808 4.63281 12.3002 6.32812 12.3002 8.51562V13H12.2729Z" fill="#001B42"/>
</svg>
