<svg width="64" height="51" viewBox="0 0 64 51" fill="none" xmlns="http://www.w3.org/2000/svg">
<path d="M3 19.0714H61M15.8889 35.1429H19.1111M32 35.1429H35.2222M12.6667 48H51.3333C53.8971 48 56.3559 46.9841 58.1687 45.1757C59.9816 43.3673 61 40.9146 61 38.3571V12.6429C61 10.0854 59.9816 7.63271 58.1687 5.82433C56.3559 4.01594 53.8971 3 51.3333 3H12.6667C10.1029 3 7.64415 4.01594 5.8313 5.82433C4.01845 7.63271 3 10.0854 3 12.6429V38.3571C3 40.9146 4.01845 43.3673 5.8313 45.1757C7.64415 46.9841 10.1029 48 12.6667 48Z" stroke="#001B42" stroke-width="6" stroke-linecap="round" stroke-linejoin="round"/>
</svg>
