<?xml version="1.0" encoding="UTF-8"?>
<svg id="Layer_1" data-name="Layer 1" xmlns="http://www.w3.org/2000/svg" xmlns:xlink="http://www.w3.org/1999/xlink" viewBox="0 0 1080 1080">
  <defs>
    <style>
      .cls-1 {
        fill: url(#linear-gradient-38);
      }

      .cls-1, .cls-2, .cls-3, .cls-4, .cls-5, .cls-6, .cls-7, .cls-8, .cls-9, .cls-10, .cls-11, .cls-12, .cls-13, .cls-14, .cls-15, .cls-16, .cls-17, .cls-18, .cls-19, .cls-20, .cls-21, .cls-22, .cls-23, .cls-24, .cls-25, .cls-26, .cls-27, .cls-28, .cls-29, .cls-30, .cls-31, .cls-32, .cls-33, .cls-34, .cls-35, .cls-36, .cls-37, .cls-38, .cls-39, .cls-40, .cls-41, .cls-42, .cls-43, .cls-44, .cls-45, .cls-46, .cls-47, .cls-48, .cls-49, .cls-50, .cls-51, .cls-52, .cls-53, .cls-54, .cls-55, .cls-56, .cls-57, .cls-58, .cls-59, .cls-60, .cls-61, .cls-62, .cls-63, .cls-64, .cls-65, .cls-66, .cls-67, .cls-68, .cls-69, .cls-70, .cls-71, .cls-72, .cls-73, .cls-74, .cls-75, .cls-76, .cls-77, .cls-78, .cls-79, .cls-80, .cls-81, .cls-82, .cls-83, .cls-84, .cls-85, .cls-86, .cls-87, .cls-88, .cls-89, .cls-90, .cls-91, .cls-92, .cls-93, .cls-94, .cls-95, .cls-96, .cls-97, .cls-98, .cls-99, .cls-100, .cls-101, .cls-102, .cls-103, .cls-104, .cls-105, .cls-106, .cls-107, .cls-108, .cls-109, .cls-110, .cls-111, .cls-112, .cls-113, .cls-114, .cls-115, .cls-116, .cls-117, .cls-118, .cls-119, .cls-120, .cls-121, .cls-122, .cls-123, .cls-124, .cls-125, .cls-126, .cls-127, .cls-128, .cls-129, .cls-130, .cls-131, .cls-132, .cls-133, .cls-134, .cls-135, .cls-136, .cls-137, .cls-138, .cls-139, .cls-140, .cls-141, .cls-142, .cls-143, .cls-144, .cls-145, .cls-146, .cls-147, .cls-148, .cls-149, .cls-150, .cls-151, .cls-152, .cls-153, .cls-154, .cls-155 {
        stroke-width: 0px;
      }

      .cls-2 {
        fill: url(#linear-gradient-12);
      }

      .cls-3 {
        fill: url(#linear-gradient-127);
      }

      .cls-4 {
        fill: url(#linear-gradient-17);
      }

      .cls-5 {
        fill: url(#linear-gradient-132);
      }

      .cls-6 {
        fill: url(#linear-gradient-88);
      }

      .cls-7 {
        fill: url(#linear-gradient-19);
      }

      .cls-8 {
        fill: url(#linear-gradient-33);
      }

      .cls-9 {
        fill: url(#linear-gradient);
      }

      .cls-10 {
        fill: url(#linear-gradient-62);
      }

      .cls-11 {
        fill: url(#linear-gradient-137);
      }

      .cls-12 {
        fill: url(#linear-gradient-92);
      }

      .cls-13 {
        fill: #000;
      }

      .cls-14 {
        fill: url(#linear-gradient-98);
      }

      .cls-15 {
        fill: url(#linear-gradient-139);
      }

      .cls-16 {
        fill: url(#linear-gradient-67);
      }

      .cls-17 {
        fill: url(#linear-gradient-153);
      }

      .cls-18 {
        fill: url(#linear-gradient-57);
      }

      .cls-19 {
        fill: url(#linear-gradient-138);
      }

      .cls-20 {
        fill: url(#linear-gradient-149);
      }

      .cls-21 {
        fill: url(#linear-gradient-21);
      }

      .cls-22 {
        fill: url(#linear-gradient-6);
      }

      .cls-23 {
        fill: url(#linear-gradient-76);
      }

      .cls-24 {
        fill: url(#linear-gradient-124);
      }

      .cls-25 {
        fill: url(#linear-gradient-136);
      }

      .cls-26 {
        fill: url(#linear-gradient-42);
      }

      .cls-27 {
        fill: url(#linear-gradient-104);
      }

      .cls-28 {
        fill: url(#linear-gradient-95);
      }

      .cls-29 {
        fill: url(#linear-gradient-15);
      }

      .cls-30 {
        fill: url(#linear-gradient-11);
      }

      .cls-31 {
        fill: url(#linear-gradient-106);
      }

      .cls-32 {
        fill: url(#linear-gradient-101);
      }

      .cls-33 {
        fill: url(#linear-gradient-81);
      }

      .cls-34 {
        fill: url(#linear-gradient-73);
      }

      .cls-35 {
        fill: url(#linear-gradient-91);
      }

      .cls-36 {
        fill: url(#linear-gradient-151);
      }

      .cls-37 {
        fill: url(#linear-gradient-5);
      }

      .cls-38 {
        fill: url(#linear-gradient-133);
      }

      .cls-39 {
        fill: url(#linear-gradient-31);
      }

      .cls-40 {
        fill: url(#linear-gradient-103);
      }

      .cls-41 {
        fill: url(#linear-gradient-71);
      }

      .cls-42 {
        fill: url(#linear-gradient-58);
      }

      .cls-43 {
        fill: url(#linear-gradient-63);
      }

      .cls-44 {
        fill: url(#linear-gradient-154);
      }

      .cls-45 {
        fill: url(#linear-gradient-34);
      }

      .cls-46 {
        fill: url(#linear-gradient-122);
      }

      .cls-47 {
        fill: url(#linear-gradient-96);
      }

      .cls-48 {
        fill: url(#linear-gradient-130);
      }

      .cls-49 {
        fill: url(#linear-gradient-120);
      }

      .cls-50 {
        fill: url(#linear-gradient-41);
      }

      .cls-51 {
        fill: url(#linear-gradient-89);
      }

      .cls-52 {
        fill: url(#linear-gradient-40);
      }

      .cls-53 {
        fill: url(#linear-gradient-147);
      }

      .cls-54 {
        fill: url(#linear-gradient-66);
      }

      .cls-55 {
        fill: url(#linear-gradient-126);
      }

      .cls-56 {
        fill: url(#linear-gradient-13);
      }

      .cls-57 {
        fill: url(#linear-gradient-23);
      }

      .cls-58 {
        fill: url(#linear-gradient-25);
      }

      .cls-59 {
        fill: url(#linear-gradient-43);
      }

      .cls-60 {
        fill: url(#linear-gradient-16);
      }

      .cls-61 {
        fill: url(#linear-gradient-22);
      }

      .cls-62 {
        fill: url(#linear-gradient-54);
      }

      .cls-63 {
        fill: url(#linear-gradient-55);
      }

      .cls-64 {
        fill: url(#linear-gradient-110);
      }

      .cls-65 {
        fill: url(#linear-gradient-141);
      }

      .cls-66 {
        fill: url(#linear-gradient-35);
      }

      .cls-67 {
        fill: url(#linear-gradient-50);
      }

      .cls-68 {
        fill: url(#linear-gradient-32);
      }

      .cls-69 {
        fill: url(#linear-gradient-60);
      }

      .cls-70 {
        fill: url(#linear-gradient-59);
      }

      .cls-71 {
        fill: url(#linear-gradient-20);
      }

      .cls-72 {
        fill: url(#linear-gradient-14);
      }

      .cls-73 {
        fill: url(#linear-gradient-2);
      }

      .cls-74 {
        fill: url(#linear-gradient-146);
      }

      .cls-75 {
        fill: url(#linear-gradient-52);
      }

      .cls-76 {
        fill: url(#linear-gradient-45);
      }

      .cls-77 {
        fill: url(#linear-gradient-93);
      }

      .cls-78 {
        fill: url(#linear-gradient-7);
      }

      .cls-79 {
        fill: url(#linear-gradient-39);
      }

      .cls-80 {
        fill: url(#linear-gradient-3);
      }

      .cls-81 {
        fill: url(#linear-gradient-148);
      }

      .cls-82 {
        fill: url(#linear-gradient-77);
      }

      .cls-83 {
        fill: url(#linear-gradient-119);
      }

      .cls-84 {
        fill: url(#linear-gradient-69);
      }

      .cls-85 {
        fill: url(#linear-gradient-143);
      }

      .cls-86 {
        fill: url(#linear-gradient-125);
      }

      .cls-87 {
        fill: url(#linear-gradient-94);
      }

      .cls-88 {
        fill: url(#linear-gradient-9);
      }

      .cls-89 {
        fill: url(#linear-gradient-27);
      }

      .cls-90 {
        fill: url(#linear-gradient-134);
      }

      .cls-91 {
        fill: url(#linear-gradient-152);
      }

      .cls-92 {
        fill: url(#linear-gradient-100);
      }

      .cls-93 {
        fill: url(#linear-gradient-131);
      }

      .cls-94 {
        fill: url(#linear-gradient-82);
      }

      .cls-95 {
        fill: url(#linear-gradient-105);
      }

      .cls-96 {
        fill: url(#linear-gradient-83);
      }

      .cls-97 {
        fill: url(#linear-gradient-142);
      }

      .cls-98 {
        fill: url(#linear-gradient-53);
      }

      .cls-99 {
        fill: url(#linear-gradient-90);
      }

      .cls-100 {
        fill: url(#linear-gradient-117);
      }

      .cls-101 {
        fill: url(#linear-gradient-85);
      }

      .cls-102 {
        fill: url(#linear-gradient-65);
      }

      .cls-103 {
        fill: url(#linear-gradient-36);
      }

      .cls-104 {
        fill: url(#linear-gradient-48);
      }

      .cls-105 {
        fill: url(#linear-gradient-49);
      }

      .cls-106 {
        fill: url(#linear-gradient-8);
      }

      .cls-107 {
        fill: url(#linear-gradient-47);
      }

      .cls-108 {
        fill: url(#linear-gradient-24);
      }

      .cls-109 {
        fill: url(#linear-gradient-26);
      }

      .cls-110 {
        fill: url(#linear-gradient-61);
      }

      .cls-111 {
        fill: url(#linear-gradient-114);
      }

      .cls-112 {
        fill: url(#linear-gradient-18);
      }

      .cls-113 {
        fill: url(#linear-gradient-51);
      }

      .cls-114 {
        fill: url(#linear-gradient-30);
      }

      .cls-115 {
        fill: url(#linear-gradient-121);
      }

      .cls-116 {
        fill: url(#linear-gradient-44);
      }

      .cls-117 {
        fill: url(#linear-gradient-84);
      }

      .cls-118 {
        fill: url(#linear-gradient-97);
      }

      .cls-119 {
        fill: url(#linear-gradient-68);
      }

      .cls-120 {
        fill: url(#linear-gradient-129);
      }

      .cls-121 {
        fill: url(#linear-gradient-72);
      }

      .cls-122 {
        fill: url(#linear-gradient-29);
      }

      .cls-123 {
        fill: url(#linear-gradient-46);
      }

      .cls-124 {
        fill: url(#linear-gradient-140);
      }

      .cls-125 {
        fill: url(#linear-gradient-64);
      }

      .cls-126 {
        fill: url(#linear-gradient-107);
      }

      .cls-127 {
        fill: url(#linear-gradient-109);
      }

      .cls-128 {
        fill: url(#linear-gradient-145);
      }

      .cls-129 {
        fill: url(#linear-gradient-113);
      }

      .cls-130 {
        fill: url(#linear-gradient-28);
      }

      .cls-131 {
        fill: url(#linear-gradient-56);
      }

      .cls-132 {
        fill: url(#linear-gradient-99);
      }

      .cls-133 {
        fill: url(#linear-gradient-10);
      }

      .cls-134 {
        fill: url(#linear-gradient-150);
      }

      .cls-135 {
        fill: url(#linear-gradient-87);
      }

      .cls-136 {
        fill: url(#linear-gradient-70);
      }

      .cls-137 {
        fill: url(#linear-gradient-78);
      }

      .cls-138 {
        fill: url(#linear-gradient-86);
      }

      .cls-139 {
        fill: url(#linear-gradient-74);
      }

      .cls-140 {
        fill: url(#linear-gradient-102);
      }

      .cls-141 {
        fill: url(#linear-gradient-4);
      }

      .cls-142 {
        fill: url(#linear-gradient-118);
      }

      .cls-143 {
        fill: url(#linear-gradient-112);
      }

      .cls-144 {
        fill: url(#linear-gradient-123);
      }

      .cls-145 {
        fill: url(#linear-gradient-128);
      }

      .cls-146 {
        fill: url(#linear-gradient-37);
      }

      .cls-147 {
        fill: url(#linear-gradient-80);
      }

      .cls-148 {
        fill: url(#linear-gradient-115);
      }

      .cls-149 {
        fill: url(#linear-gradient-135);
      }

      .cls-150 {
        fill: url(#linear-gradient-116);
      }

      .cls-151 {
        fill: url(#linear-gradient-79);
      }

      .cls-152 {
        fill: url(#linear-gradient-111);
      }

      .cls-153 {
        fill: url(#linear-gradient-108);
      }

      .cls-154 {
        fill: url(#linear-gradient-144);
      }

      .cls-155 {
        fill: url(#linear-gradient-75);
      }
    </style>
    <linearGradient id="linear-gradient" x1="232.32" y1="597.87" x2="269.59" y2="597.87" gradientUnits="userSpaceOnUse">
      <stop offset="0" stop-color="#986f2b"/>
      <stop offset="0" stop-color="#986f2b"/>
      <stop offset=".02" stop-color="#ac8545"/>
      <stop offset=".04" stop-color="#c5a165"/>
      <stop offset=".07" stop-color="#dab880"/>
      <stop offset=".1" stop-color="#eac995"/>
      <stop offset=".13" stop-color="#f6d6a3"/>
      <stop offset=".17" stop-color="#fcddac"/>
      <stop offset=".23" stop-color="#ffe0af"/>
      <stop offset=".29" stop-color="#fdddab"/>
      <stop offset=".34" stop-color="#f7d6a1"/>
      <stop offset=".39" stop-color="#edcb8f"/>
      <stop offset=".43" stop-color="#deba77"/>
      <stop offset=".48" stop-color="#cca558"/>
      <stop offset=".49" stop-color="#c8a050"/>
      <stop offset=".5" stop-color="#d0aa5f"/>
      <stop offset=".55" stop-color="#e1bd7c"/>
      <stop offset=".59" stop-color="#eecc92"/>
      <stop offset=".64" stop-color="#f7d7a2"/>
      <stop offset=".69" stop-color="#fddeac"/>
      <stop offset=".77" stop-color="#ffe0af"/>
      <stop offset=".83" stop-color="#fcddac"/>
      <stop offset=".87" stop-color="#f6d6a3"/>
      <stop offset=".9" stop-color="#eac994"/>
      <stop offset=".93" stop-color="#dab77f"/>
      <stop offset=".96" stop-color="#c5a064"/>
      <stop offset=".98" stop-color="#ab8443"/>
      <stop offset="1" stop-color="#986f2b"/>
    </linearGradient>
    <linearGradient id="linear-gradient-2" x1="230.81" y1="597.83" x2="271.09" y2="599.41" xlink:href="#linear-gradient"/>
    <linearGradient id="linear-gradient-3" x1="229.41" y1="597.65" x2="272.36" y2="601.03" xlink:href="#linear-gradient"/>
    <linearGradient id="linear-gradient-4" x1="228.14" y1="597.33" x2="273.42" y2="602.69" xlink:href="#linear-gradient"/>
    <linearGradient id="linear-gradient-5" x1="227" y1="596.89" x2="274.26" y2="604.37" xlink:href="#linear-gradient"/>
    <linearGradient id="linear-gradient-6" x1="226" y1="596.34" x2="274.87" y2="606.06" xlink:href="#linear-gradient"/>
    <linearGradient id="linear-gradient-7" x1="225.14" y1="595.7" x2="275.28" y2="607.74" xlink:href="#linear-gradient"/>
    <linearGradient id="linear-gradient-8" x1="224.44" y1="594.99" x2="275.48" y2="609.38" xlink:href="#linear-gradient"/>
    <linearGradient id="linear-gradient-9" x1="223.9" y1="594.22" x2="275.48" y2="610.98" xlink:href="#linear-gradient"/>
    <linearGradient id="linear-gradient-10" x1="223.51" y1="593.4" x2="275.29" y2="612.5" xlink:href="#linear-gradient"/>
    <linearGradient id="linear-gradient-11" x1="223.28" y1="592.55" x2="274.93" y2="613.94" xlink:href="#linear-gradient"/>
    <linearGradient id="linear-gradient-12" x1="223.21" y1="591.69" x2="274.39" y2="615.29" xlink:href="#linear-gradient"/>
    <linearGradient id="linear-gradient-13" x1="223.29" y1="590.83" x2="273.7" y2="616.52" xlink:href="#linear-gradient"/>
    <linearGradient id="linear-gradient-14" x1="223.52" y1="589.98" x2="272.88" y2="617.62" xlink:href="#linear-gradient"/>
    <linearGradient id="linear-gradient-15" x1="223.9" y1="589.17" x2="271.92" y2="618.6" xlink:href="#linear-gradient"/>
    <linearGradient id="linear-gradient-16" x1="224.58" y1="588.15" x2="271.02" y2="619.19" xlink:href="#linear-gradient"/>
    <linearGradient id="linear-gradient-17" x1="225.54" y1="587.03" x2="270.18" y2="619.46" xlink:href="#linear-gradient"/>
    <linearGradient id="linear-gradient-18" x1="226.63" y1="586.03" x2="269.26" y2="619.64" xlink:href="#linear-gradient"/>
    <linearGradient id="linear-gradient-19" x1="227.83" y1="585.17" x2="268.29" y2="619.72" xlink:href="#linear-gradient"/>
    <linearGradient id="linear-gradient-20" x1="229.12" y1="584.45" x2="267.26" y2="619.7" xlink:href="#linear-gradient"/>
    <linearGradient id="linear-gradient-21" x1="230.5" y1="583.87" x2="266.2" y2="619.57" xlink:href="#linear-gradient"/>
    <linearGradient id="linear-gradient-22" x1="231.94" y1="583.45" x2="265.11" y2="619.33" xlink:href="#linear-gradient"/>
    <linearGradient id="linear-gradient-23" x1="233.42" y1="583.19" x2="264" y2="618.99" xlink:href="#linear-gradient"/>
    <linearGradient id="linear-gradient-24" x1="234.94" y1="583.08" x2="262.89" y2="618.54" xlink:href="#linear-gradient"/>
    <linearGradient id="linear-gradient-25" x1="236.47" y1="583.13" x2="261.79" y2="617.99" xlink:href="#linear-gradient"/>
    <linearGradient id="linear-gradient-26" x1="237.99" y1="583.33" x2="260.71" y2="617.33" xlink:href="#linear-gradient"/>
    <linearGradient id="linear-gradient-27" x1="239.5" y1="583.68" x2="259.65" y2="616.58" xlink:href="#linear-gradient"/>
    <linearGradient id="linear-gradient-28" x1="240.97" y1="584.18" x2="258.64" y2="615.73" xlink:href="#linear-gradient"/>
    <linearGradient id="linear-gradient-29" x1="242.39" y1="584.81" x2="257.67" y2="614.8" xlink:href="#linear-gradient"/>
    <linearGradient id="linear-gradient-30" x1="243.74" y1="585.58" x2="256.75" y2="613.8" xlink:href="#linear-gradient"/>
    <linearGradient id="linear-gradient-31" x1="245.02" y1="586.46" x2="255.9" y2="612.72" xlink:href="#linear-gradient"/>
    <linearGradient id="linear-gradient-32" x1="246.22" y1="587.45" x2="255.12" y2="611.58" xlink:href="#linear-gradient"/>
    <linearGradient id="linear-gradient-33" x1="247.31" y1="588.54" x2="254.41" y2="610.38" xlink:href="#linear-gradient"/>
    <linearGradient id="linear-gradient-34" x1="248.3" y1="589.71" x2="253.78" y2="609.14" xlink:href="#linear-gradient"/>
    <linearGradient id="linear-gradient-35" x1="249.17" y1="590.95" x2="253.23" y2="607.87" xlink:href="#linear-gradient"/>
    <linearGradient id="linear-gradient-36" x1="249.92" y1="592.25" x2="252.77" y2="606.57" xlink:href="#linear-gradient"/>
    <linearGradient id="linear-gradient-37" x1="250.55" y1="593.59" x2="252.39" y2="605.25" xlink:href="#linear-gradient"/>
    <linearGradient id="linear-gradient-38" x1="251.04" y1="594.95" x2="252.11" y2="603.94" xlink:href="#linear-gradient"/>
    <linearGradient id="linear-gradient-39" x1="251.41" y1="596.33" x2="251.91" y2="602.62" xlink:href="#linear-gradient"/>
    <linearGradient id="linear-gradient-40" x1="251.65" y1="597.7" x2="251.79" y2="601.33" xlink:href="#linear-gradient"/>
    <linearGradient id="linear-gradient-41" x1="251.76" y1="599.06" x2="251.76" y2="600.06" xlink:href="#linear-gradient"/>
    <linearGradient id="linear-gradient-42" x1="153.81" y1="465.59" x2="154.58" y2="465.14" xlink:href="#linear-gradient"/>
    <linearGradient id="linear-gradient-43" x1="153.25" y1="466.3" x2="155.44" y2="465.05" xlink:href="#linear-gradient"/>
    <linearGradient id="linear-gradient-44" x1="152.68" y1="466.98" x2="156.29" y2="464.97" xlink:href="#linear-gradient"/>
    <linearGradient id="linear-gradient-45" x1="152.12" y1="467.64" x2="157.14" y2="464.9" xlink:href="#linear-gradient"/>
    <linearGradient id="linear-gradient-46" x1="151.56" y1="468.28" x2="157.97" y2="464.84" xlink:href="#linear-gradient"/>
    <linearGradient id="linear-gradient-47" x1="151.01" y1="468.91" x2="158.81" y2="464.81" xlink:href="#linear-gradient"/>
    <linearGradient id="linear-gradient-48" x1="150.47" y1="469.55" x2="159.66" y2="464.81" xlink:href="#linear-gradient"/>
    <linearGradient id="linear-gradient-49" x1="149.94" y1="470.17" x2="160.5" y2="464.83" xlink:href="#linear-gradient"/>
    <linearGradient id="linear-gradient-50" x1="149.41" y1="470.77" x2="161.33" y2="464.86" xlink:href="#linear-gradient"/>
    <linearGradient id="linear-gradient-51" x1="148.89" y1="471.36" x2="162.16" y2="464.91" xlink:href="#linear-gradient"/>
    <linearGradient id="linear-gradient-52" x1="148.37" y1="471.93" x2="162.98" y2="464.98" xlink:href="#linear-gradient"/>
    <linearGradient id="linear-gradient-53" x1="147.87" y1="472.49" x2="163.8" y2="465.06" xlink:href="#linear-gradient"/>
    <linearGradient id="linear-gradient-54" x1="147.36" y1="473.03" x2="164.61" y2="465.16" xlink:href="#linear-gradient"/>
    <linearGradient id="linear-gradient-55" x1="146.87" y1="473.56" x2="165.41" y2="465.27" xlink:href="#linear-gradient"/>
    <linearGradient id="linear-gradient-56" x1="146.38" y1="474.07" x2="166.2" y2="465.39" xlink:href="#linear-gradient"/>
    <linearGradient id="linear-gradient-57" x1="145.9" y1="474.56" x2="166.99" y2="465.53" xlink:href="#linear-gradient"/>
    <linearGradient id="linear-gradient-58" x1="145.43" y1="475.05" x2="167.77" y2="465.69" xlink:href="#linear-gradient"/>
    <linearGradient id="linear-gradient-59" x1="144.97" y1="475.51" x2="168.54" y2="465.86" xlink:href="#linear-gradient"/>
    <linearGradient id="linear-gradient-60" x1="144.52" y1="475.97" x2="169.3" y2="466.05" xlink:href="#linear-gradient"/>
    <linearGradient id="linear-gradient-61" x1="144.08" y1="476.4" x2="170.05" y2="466.24" xlink:href="#linear-gradient"/>
    <linearGradient id="linear-gradient-62" x1="143.64" y1="476.83" x2="170.79" y2="466.46" xlink:href="#linear-gradient"/>
    <linearGradient id="linear-gradient-63" x1="143.22" y1="477.24" x2="171.52" y2="466.68" xlink:href="#linear-gradient"/>
    <linearGradient id="linear-gradient-64" x1="142.81" y1="477.64" x2="172.24" y2="466.92" xlink:href="#linear-gradient"/>
    <linearGradient id="linear-gradient-65" x1="142.41" y1="478.02" x2="172.95" y2="467.18" xlink:href="#linear-gradient"/>
    <linearGradient id="linear-gradient-66" x1="142.01" y1="478.39" x2="173.65" y2="467.44" xlink:href="#linear-gradient"/>
    <linearGradient id="linear-gradient-67" x1="141.64" y1="478.75" x2="174.33" y2="467.72" xlink:href="#linear-gradient"/>
    <linearGradient id="linear-gradient-68" x1="141.27" y1="479.1" x2="175.01" y2="468.01" xlink:href="#linear-gradient"/>
    <linearGradient id="linear-gradient-69" x1="140.91" y1="479.43" x2="175.67" y2="468.32" xlink:href="#linear-gradient"/>
    <linearGradient id="linear-gradient-70" x1="140.57" y1="479.75" x2="176.32" y2="468.63" xlink:href="#linear-gradient"/>
    <linearGradient id="linear-gradient-71" x1="140.24" y1="480.06" x2="176.96" y2="468.96" xlink:href="#linear-gradient"/>
    <linearGradient id="linear-gradient-72" x1="139.92" y1="480.36" x2="177.59" y2="469.3" xlink:href="#linear-gradient"/>
    <linearGradient id="linear-gradient-73" x1="139.61" y1="480.65" x2="178.2" y2="469.65" xlink:href="#linear-gradient"/>
    <linearGradient id="linear-gradient-74" x1="139.32" y1="480.93" x2="178.8" y2="470.01" xlink:href="#linear-gradient"/>
    <linearGradient id="linear-gradient-75" x1="139.05" y1="481.19" x2="179.39" y2="470.38" xlink:href="#linear-gradient"/>
    <linearGradient id="linear-gradient-76" x1="138.78" y1="481.45" x2="179.96" y2="470.76" xlink:href="#linear-gradient"/>
    <linearGradient id="linear-gradient-77" x1="138.53" y1="481.69" x2="180.51" y2="471.16" xlink:href="#linear-gradient"/>
    <linearGradient id="linear-gradient-78" x1="138.3" y1="481.93" x2="181.06" y2="471.56" xlink:href="#linear-gradient"/>
    <linearGradient id="linear-gradient-79" x1="138.08" y1="482.16" x2="181.58" y2="471.97" xlink:href="#linear-gradient"/>
    <linearGradient id="linear-gradient-80" x1="137.87" y1="482.38" x2="182.1" y2="472.39" xlink:href="#linear-gradient"/>
    <linearGradient id="linear-gradient-81" x1="137.68" y1="482.59" x2="182.59" y2="472.82" xlink:href="#linear-gradient"/>
    <linearGradient id="linear-gradient-82" x1="137.51" y1="482.79" x2="183.07" y2="473.25" xlink:href="#linear-gradient"/>
    <linearGradient id="linear-gradient-83" x1="137.35" y1="482.98" x2="183.54" y2="473.7" xlink:href="#linear-gradient"/>
    <linearGradient id="linear-gradient-84" x1="137.21" y1="483.17" x2="183.99" y2="474.15" xlink:href="#linear-gradient"/>
    <linearGradient id="linear-gradient-85" x1="137.08" y1="483.34" x2="184.42" y2="474.61" xlink:href="#linear-gradient"/>
    <linearGradient id="linear-gradient-86" x1="136.97" y1="483.51" x2="184.84" y2="475.07" xlink:href="#linear-gradient"/>
    <linearGradient id="linear-gradient-87" x1="136.88" y1="483.68" x2="185.24" y2="475.55" xlink:href="#linear-gradient"/>
    <linearGradient id="linear-gradient-88" x1="136.8" y1="483.84" x2="185.63" y2="476.03" xlink:href="#linear-gradient"/>
    <linearGradient id="linear-gradient-89" x1="136.74" y1="483.99" x2="185.99" y2="476.51" xlink:href="#linear-gradient"/>
    <linearGradient id="linear-gradient-90" x1="136.7" y1="484.14" x2="186.34" y2="477" xlink:href="#linear-gradient"/>
    <linearGradient id="linear-gradient-91" x1="136.68" y1="484.28" x2="186.68" y2="477.5" xlink:href="#linear-gradient"/>
    <linearGradient id="linear-gradient-92" x1="136.67" y1="484.42" x2="186.99" y2="478" xlink:href="#linear-gradient"/>
    <linearGradient id="linear-gradient-93" x1="136.68" y1="484.55" x2="187.29" y2="478.5" xlink:href="#linear-gradient"/>
    <linearGradient id="linear-gradient-94" x1="136.71" y1="484.68" x2="187.57" y2="479.01" xlink:href="#linear-gradient"/>
    <linearGradient id="linear-gradient-95" x1="136.75" y1="484.81" x2="187.83" y2="479.52" xlink:href="#linear-gradient"/>
    <linearGradient id="linear-gradient-96" x1="136.81" y1="484.93" x2="188.08" y2="480.04" xlink:href="#linear-gradient"/>
    <linearGradient id="linear-gradient-97" x1="136.9" y1="485.05" x2="188.3" y2="480.55" xlink:href="#linear-gradient"/>
    <linearGradient id="linear-gradient-98" x1="136.99" y1="485.17" x2="188.51" y2="481.07" xlink:href="#linear-gradient"/>
    <linearGradient id="linear-gradient-99" x1="137.11" y1="485.28" x2="188.7" y2="481.59" xlink:href="#linear-gradient"/>
    <linearGradient id="linear-gradient-100" x1="137.25" y1="485.4" x2="188.87" y2="482.12" xlink:href="#linear-gradient"/>
    <linearGradient id="linear-gradient-101" x1="137.4" y1="485.51" x2="189.03" y2="482.64" xlink:href="#linear-gradient"/>
    <linearGradient id="linear-gradient-102" x1="137.58" y1="485.62" x2="189.16" y2="483.17" xlink:href="#linear-gradient"/>
    <linearGradient id="linear-gradient-103" x1="137.77" y1="485.74" x2="189.28" y2="483.69" xlink:href="#linear-gradient"/>
    <linearGradient id="linear-gradient-104" x1="137.98" y1="485.85" x2="189.37" y2="484.22" xlink:href="#linear-gradient"/>
    <linearGradient id="linear-gradient-105" x1="138.21" y1="485.96" x2="189.45" y2="484.74" xlink:href="#linear-gradient"/>
    <linearGradient id="linear-gradient-106" x1="138.46" y1="486.08" x2="189.51" y2="485.27" xlink:href="#linear-gradient"/>
    <linearGradient id="linear-gradient-107" x1="138.72" y1="486.19" x2="189.55" y2="485.79" xlink:href="#linear-gradient"/>
    <linearGradient id="linear-gradient-108" x1="189.57" y1="486.31" x2="139.01" y2="486.31" xlink:href="#linear-gradient"/>
    <linearGradient id="linear-gradient-109" x1="73.95" y1="587.33" x2="139.01" y2="587.33" gradientUnits="userSpaceOnUse">
      <stop offset="0" stop-color="#986f2b"/>
      <stop offset=".04" stop-color="#b48d4e"/>
      <stop offset=".08" stop-color="#ceab71"/>
      <stop offset=".13" stop-color="#e4c28c"/>
      <stop offset=".17" stop-color="#f3d29f"/>
      <stop offset=".22" stop-color="#fcdcab"/>
      <stop offset=".27" stop-color="#ffe0af"/>
      <stop offset=".36" stop-color="#d0ad73"/>
      <stop offset=".45" stop-color="#a7803f"/>
      <stop offset=".5" stop-color="#986f2b"/>
      <stop offset=".75" stop-color="#ffe0af"/>
      <stop offset=".82" stop-color="#fcddac"/>
      <stop offset=".86" stop-color="#f6d6a3"/>
      <stop offset=".89" stop-color="#eac994"/>
      <stop offset=".93" stop-color="#dab77f"/>
      <stop offset=".96" stop-color="#c5a064"/>
      <stop offset=".98" stop-color="#ab8443"/>
      <stop offset="1" stop-color="#986f2b"/>
    </linearGradient>
    <linearGradient id="linear-gradient-110" x1="189.57" y1="563.01" x2="232.32" y2="563.01" xlink:href="#linear-gradient-109"/>
    <linearGradient id="linear-gradient-111" x1="153.95" y1="574.41" x2="204.13" y2="574.41" xlink:href="#linear-gradient-109"/>
    <linearGradient id="linear-gradient-112" x1="132.52" y1="596.74" x2="131.92" y2="597.79" xlink:href="#linear-gradient"/>
    <linearGradient id="linear-gradient-113" x1="131.59" y1="596.16" x2="133.22" y2="598.83" xlink:href="#linear-gradient"/>
    <linearGradient id="linear-gradient-114" x1="131.2" y1="595.49" x2="134.04" y2="599.88" xlink:href="#linear-gradient"/>
    <linearGradient id="linear-gradient-115" x1="130.76" y1="594.8" x2="134.9" y2="600.86" xlink:href="#linear-gradient"/>
    <linearGradient id="linear-gradient-116" x1="130.29" y1="594.14" x2="135.8" y2="601.8" xlink:href="#linear-gradient"/>
    <linearGradient id="linear-gradient-117" x1="129.78" y1="593.5" x2="136.73" y2="602.68" xlink:href="#linear-gradient"/>
    <linearGradient id="linear-gradient-118" x1="129.25" y1="592.89" x2="137.7" y2="603.49" xlink:href="#linear-gradient"/>
    <linearGradient id="linear-gradient-119" x1="128.69" y1="592.32" x2="138.7" y2="604.25" xlink:href="#linear-gradient"/>
    <linearGradient id="linear-gradient-120" x1="128.11" y1="591.79" x2="139.72" y2="604.93" xlink:href="#linear-gradient"/>
    <linearGradient id="linear-gradient-121" x1="127.51" y1="591.29" x2="140.75" y2="605.56" xlink:href="#linear-gradient"/>
    <linearGradient id="linear-gradient-122" x1="126.89" y1="590.83" x2="141.8" y2="606.11" xlink:href="#linear-gradient"/>
    <linearGradient id="linear-gradient-123" x1="126.26" y1="590.41" x2="142.85" y2="606.59" xlink:href="#linear-gradient"/>
    <linearGradient id="linear-gradient-124" x1="125.61" y1="590.03" x2="143.91" y2="607.01" xlink:href="#linear-gradient"/>
    <linearGradient id="linear-gradient-125" x1="124.96" y1="589.69" x2="144.97" y2="607.35" xlink:href="#linear-gradient"/>
    <linearGradient id="linear-gradient-126" x1="124.3" y1="589.4" x2="146.02" y2="607.63" xlink:href="#linear-gradient"/>
    <linearGradient id="linear-gradient-127" x1="123.64" y1="589.15" x2="147.06" y2="607.83" xlink:href="#linear-gradient"/>
    <linearGradient id="linear-gradient-128" x1="122.98" y1="588.95" x2="148.07" y2="607.96" xlink:href="#linear-gradient"/>
    <linearGradient id="linear-gradient-129" x1="122.32" y1="588.79" x2="149.07" y2="608.03" xlink:href="#linear-gradient"/>
    <linearGradient id="linear-gradient-130" x1="121.67" y1="588.68" x2="150.04" y2="608.02" xlink:href="#linear-gradient"/>
    <linearGradient id="linear-gradient-131" x1="121.02" y1="588.61" x2="150.97" y2="607.95" xlink:href="#linear-gradient"/>
    <linearGradient id="linear-gradient-132" x1="120.4" y1="588.58" x2="151.87" y2="607.81" xlink:href="#linear-gradient"/>
    <linearGradient id="linear-gradient-133" x1="119.78" y1="588.6" x2="152.72" y2="607.62" xlink:href="#linear-gradient"/>
    <linearGradient id="linear-gradient-134" x1="119.19" y1="588.66" x2="153.53" y2="607.36" xlink:href="#linear-gradient"/>
    <linearGradient id="linear-gradient-135" x1="118.62" y1="588.76" x2="154.28" y2="607.04" xlink:href="#linear-gradient"/>
    <linearGradient id="linear-gradient-136" x1="118.08" y1="588.9" x2="154.98" y2="606.67" xlink:href="#linear-gradient"/>
    <linearGradient id="linear-gradient-137" x1="117.57" y1="589.09" x2="155.62" y2="606.25" xlink:href="#linear-gradient"/>
    <linearGradient id="linear-gradient-138" x1="117.09" y1="589.3" x2="156.19" y2="605.79" xlink:href="#linear-gradient"/>
    <linearGradient id="linear-gradient-139" x1="116.64" y1="589.56" x2="156.69" y2="605.28" xlink:href="#linear-gradient"/>
    <linearGradient id="linear-gradient-140" x1="116.23" y1="589.85" x2="157.12" y2="604.73" xlink:href="#linear-gradient"/>
    <linearGradient id="linear-gradient-141" x1="115.86" y1="590.17" x2="157.48" y2="604.15" xlink:href="#linear-gradient"/>
    <linearGradient id="linear-gradient-142" x1="115.53" y1="590.51" x2="157.76" y2="603.54" xlink:href="#linear-gradient"/>
    <linearGradient id="linear-gradient-143" x1="115.25" y1="590.89" x2="157.95" y2="602.9" xlink:href="#linear-gradient"/>
    <linearGradient id="linear-gradient-144" x1="115.02" y1="591.29" x2="158.07" y2="602.25" xlink:href="#linear-gradient"/>
    <linearGradient id="linear-gradient-145" x1="114.83" y1="591.7" x2="158.09" y2="601.58" xlink:href="#linear-gradient"/>
    <linearGradient id="linear-gradient-146" x1="114.69" y1="592.14" x2="158.03" y2="600.9" xlink:href="#linear-gradient"/>
    <linearGradient id="linear-gradient-147" x1="114.61" y1="592.59" x2="157.88" y2="600.22" xlink:href="#linear-gradient"/>
    <linearGradient id="linear-gradient-148" x1="114.58" y1="593.05" x2="157.64" y2="599.54" xlink:href="#linear-gradient"/>
    <linearGradient id="linear-gradient-149" x1="114.61" y1="593.52" x2="157.31" y2="598.88" xlink:href="#linear-gradient"/>
    <linearGradient id="linear-gradient-150" x1="114.7" y1="594" x2="156.89" y2="598.22" xlink:href="#linear-gradient"/>
    <linearGradient id="linear-gradient-151" x1="114.84" y1="594.47" x2="156.38" y2="597.59" xlink:href="#linear-gradient"/>
    <linearGradient id="linear-gradient-152" x1="115.04" y1="594.95" x2="155.78" y2="596.98" xlink:href="#linear-gradient"/>
    <linearGradient id="linear-gradient-153" x1="115.29" y1="595.41" x2="155.09" y2="596.41" xlink:href="#linear-gradient"/>
    <linearGradient id="linear-gradient-154" x1="154.3" y1="595.87" x2="115.61" y2="595.87" xlink:href="#linear-gradient"/>
  </defs>
  <g>
    <g>
      <path class="cls-13" d="M314.05,545.66c2.71,0,4.77.31,6.19.94,1.41.62,2.66,1.32,3.74,2.08.65.38,1.18.67,1.59.85.41.19.8.28,1.18.28.54,0,.94-.3,1.18-.9.24-.6.45-1.49.61-2.69h1.87c-.06.92-.12,2.02-.2,3.3-.08,1.27-.14,2.96-.16,5.05-.03,2.09-.04,4.84-.04,8.26h-1.87c-.16-2.6-.73-5.1-1.71-7.49-.98-2.39-2.4-4.34-4.27-5.86-1.87-1.52-4.33-2.28-7.37-2.28-2.87,0-5.25.87-7.12,2.6-1.87,1.74-2.81,4.02-2.81,6.84,0,2.44.62,4.49,1.87,6.14,1.25,1.66,2.92,3.15,5,4.48,2.09,1.33,4.36,2.75,6.8,4.27,2.82,1.74,5.33,3.46,7.53,5.17,2.2,1.71,3.93,3.59,5.21,5.66,1.27,2.06,1.91,4.56,1.91,7.49,0,3.47-.79,6.35-2.36,8.63-1.57,2.28-3.66,3.99-6.27,5.13-2.6,1.14-5.48,1.71-8.63,1.71-2.88,0-5.15-.33-6.84-.98-1.68-.65-3.12-1.33-4.31-2.03-1.19-.76-2.12-1.14-2.77-1.14-.54,0-.94.3-1.18.89-.25.6-.45,1.49-.61,2.69h-1.87c.11-1.14.17-2.48.2-4.03s.05-3.57.08-6.06c.03-2.49.04-5.64.04-9.44h1.87c.22,3.26.83,6.29,1.83,9.11,1,2.82,2.55,5.09,4.64,6.8,2.09,1.71,4.87,2.56,8.34,2.56,1.79,0,3.49-.37,5.09-1.1s2.92-1.9,3.95-3.5c1.03-1.6,1.55-3.68,1.55-6.23,0-2.22-.53-4.16-1.59-5.82-1.06-1.65-2.54-3.2-4.44-4.64-1.9-1.44-4.12-2.92-6.67-4.44-2.55-1.57-4.94-3.17-7.16-4.8-2.23-1.63-4-3.51-5.33-5.66-1.33-2.14-1.99-4.73-1.99-7.77,0-3.2.72-5.85,2.16-7.93,1.44-2.09,3.32-3.63,5.66-4.64,2.33-1,4.83-1.51,7.49-1.51Z"/>
      <path class="cls-13" d="M387.13,546.56c-.22,2.06-.37,4.06-.45,5.98-.08,1.93-.12,3.4-.12,4.44,0,1.3.03,2.52.08,3.66.05,1.14.11,2.14.16,3.01h-1.87c-.38-3.8-.89-6.8-1.55-8.99-.65-2.2-1.79-3.78-3.42-4.76-1.63-.98-4.15-1.46-7.57-1.46h-4.39v46.31c0,2.17.2,3.8.61,4.88.41,1.09,1.21,1.82,2.4,2.2,1.19.38,2.93.62,5.21.73v1.63c-1.41-.11-3.2-.18-5.37-.2-2.17-.03-4.37-.04-6.59-.04-2.44,0-4.73.01-6.88.04-2.14.03-3.86.1-5.17.2v-1.63c2.28-.11,4.01-.35,5.21-.73,1.19-.38,1.99-1.11,2.4-2.2.41-1.08.61-2.71.61-4.88v-46.31h-4.39c-3.37,0-5.87.49-7.53,1.46-1.66.98-2.81,2.56-3.46,4.76-.65,2.2-1.17,5.2-1.55,8.99h-1.87c.11-.87.18-1.87.2-3.01.03-1.14.04-2.36.04-3.66,0-1.03-.04-2.51-.12-4.44-.08-1.93-.23-3.92-.45-5.98,2.28.05,4.76.11,7.45.16,2.69.05,5.38.08,8.1.08h14.77c2.69,0,5.38-.03,8.1-.08,2.71-.05,5.18-.11,7.41-.16Z"/>
      <path class="cls-13" d="M433.76,546.56c-.22,1.9-.37,3.74-.45,5.53-.08,1.79-.12,3.15-.12,4.07,0,.98.03,1.91.08,2.81.05.89.11,1.64.16,2.24h-1.87c-.32-3.2-.79-5.74-1.38-7.61-.6-1.87-1.61-3.2-3.05-3.99-1.44-.79-3.59-1.18-6.47-1.18h-6.75c-1.85,0-3.24.15-4.19.45-.95.3-1.59.92-1.91,1.87-.33.95-.49,2.43-.49,4.44v40.36c0,1.95.16,3.42.49,4.39.32.98.96,1.61,1.91,1.91.95.3,2.35.45,4.19.45h5.94c3.42,0,6.01-.46,7.77-1.38,1.76-.92,3.04-2.43,3.82-4.52.79-2.09,1.37-4.92,1.75-8.5h1.87c-.16,1.46-.24,3.42-.24,5.86,0,1.03.04,2.51.12,4.44.08,1.93.23,3.92.45,5.98-2.77-.11-5.89-.18-9.36-.2-3.47-.03-6.56-.04-9.28-.04h-4.6c-1.87,0-3.89.01-6.06.04-2.17.03-4.37.05-6.59.08-2.23.03-4.34.07-6.35.12v-1.63c1.84-.11,3.24-.32,4.19-.65.95-.33,1.59-.98,1.91-1.95.33-.98.49-2.44.49-4.39v-40.36c0-2.01-.16-3.49-.49-4.44-.33-.95-.96-1.6-1.91-1.95-.95-.35-2.35-.56-4.19-.61v-1.63c2.01.05,4.12.1,6.35.12,2.22.03,4.42.05,6.59.08,2.17.03,4.19.04,6.06.04h4.6c2.5,0,5.33-.01,8.5-.04,3.17-.03,6.01-.09,8.51-.2ZM419.76,574.39v1.63h-14.89v-1.63h14.89ZM422.12,563.65c-.22,3.09-.31,5.45-.29,7.08.03,1.63.04,3.12.04,4.48s.03,2.85.08,4.48c.05,1.63.19,3.99.41,7.08h-1.87c-.22-1.73-.48-3.43-.77-5.09-.3-1.65-.95-3.01-1.95-4.07-1-1.06-2.7-1.59-5.09-1.59v-1.63c1.79,0,3.16-.37,4.11-1.1.95-.73,1.64-1.67,2.08-2.81.43-1.14.73-2.32.89-3.54.16-1.22.33-2.32.49-3.3h1.87Z"/>
      <path class="cls-13" d="M463.71,546.56v1.63c-1.85.05-3.24.26-4.19.61-.95.35-1.59,1-1.91,1.95-.33.95-.49,2.43-.49,4.44v40.36c0,1.95.16,3.42.49,4.39.32.98.96,1.61,1.91,1.91.95.3,2.35.45,4.19.45h5.94c2.55,0,4.63-.27,6.23-.81,1.6-.54,2.87-1.4,3.82-2.56.95-1.17,1.67-2.73,2.16-4.68s.87-4.34,1.14-7.16h1.87c-.16,1.68-.24,3.91-.24,6.67,0,1.03.04,2.51.12,4.44.08,1.93.23,3.92.45,5.98-2.77-.11-5.89-.18-9.36-.2-3.47-.03-6.56-.04-9.28-.04h-4.6c-1.87,0-3.89.01-6.06.04-2.17.03-4.37.05-6.59.08-2.23.03-4.34.07-6.35.12v-1.63c1.84-.11,3.24-.32,4.19-.65.95-.33,1.59-.98,1.91-1.95.32-.98.49-2.44.49-4.39v-40.36c0-2.01-.16-3.49-.49-4.44-.33-.95-.97-1.6-1.91-1.95-.95-.35-2.35-.56-4.19-.61v-1.63c1.14.05,2.63.11,4.48.16,1.84.05,3.82.08,5.94.08,1.9,0,3.79-.03,5.66-.08,1.87-.05,3.43-.11,4.68-.16Z"/>
      <path class="cls-13" d="M513.35,546.56v1.63c-1.85.05-3.24.26-4.19.61-.95.35-1.59,1-1.91,1.95-.33.95-.49,2.43-.49,4.44v40.36c0,1.95.16,3.42.49,4.39.32.98.96,1.61,1.91,1.91.95.3,2.35.45,4.19.45h5.94c2.55,0,4.63-.27,6.23-.81,1.6-.54,2.87-1.4,3.82-2.56.95-1.17,1.67-2.73,2.16-4.68s.87-4.34,1.14-7.16h1.87c-.16,1.68-.24,3.91-.24,6.67,0,1.03.04,2.51.12,4.44.08,1.93.23,3.92.45,5.98-2.77-.11-5.89-.18-9.36-.2-3.47-.03-6.56-.04-9.28-.04h-4.6c-1.87,0-3.89.01-6.06.04-2.17.03-4.37.05-6.59.08-2.23.03-4.34.07-6.35.12v-1.63c1.84-.11,3.24-.32,4.19-.65s1.59-.98,1.91-1.95c.32-.98.49-2.44.49-4.39v-40.36c0-2.01-.16-3.49-.49-4.44-.33-.95-.97-1.6-1.91-1.95-.95-.35-2.35-.56-4.19-.61v-1.63c1.14.05,2.63.11,4.48.16,1.84.05,3.82.08,5.94.08,1.9,0,3.79-.03,5.66-.08,1.87-.05,3.43-.11,4.68-.16Z"/>
      <path class="cls-13" d="M566.73,546.15l19.86,51.19c.81,2.06,1.73,3.43,2.77,4.11,1.03.68,1.98,1.04,2.85,1.1v1.63c-1.09-.11-2.41-.18-3.99-.2-1.57-.03-3.15-.04-4.72-.04-2.12,0-4.1.01-5.94.04-1.85.03-3.34.1-4.48.2v-1.63c2.77-.11,4.53-.58,5.29-1.42.76-.84.6-2.65-.49-5.41l-15.14-40.45,1.3-1.06-14.16,36.79c-.87,2.17-1.38,4-1.55,5.49-.16,1.49-.01,2.67.45,3.54.46.87,1.25,1.49,2.36,1.87,1.11.38,2.51.6,4.19.65v1.63c-1.52-.11-3.11-.18-4.76-.2-1.66-.03-3.19-.04-4.6-.04s-2.51.01-3.46.04c-.95.03-1.83.1-2.65.2v-1.63c1.09-.27,2.2-.91,3.34-1.91,1.14-1,2.17-2.73,3.09-5.17l19.13-49.32h1.3ZM576.66,580.74v1.63h-24.25l.82-1.63h23.44Z"/>
      <path class="cls-13" d="M597.01,546.56c1.14.05,2.63.11,4.48.16,1.84.05,3.66.08,5.45.08,2.55,0,4.99-.03,7.32-.08,2.33-.05,3.99-.08,4.96-.08,4.4,0,8.04.62,10.95,1.87,2.9,1.25,5.07,2.94,6.51,5.09,1.44,2.14,2.16,4.54,2.16,7.2,0,1.63-.33,3.36-.98,5.21-.65,1.84-1.78,3.58-3.38,5.21-1.6,1.63-3.78,2.97-6.55,4.03-2.77,1.06-6.26,1.59-10.5,1.59h-7.81v-1.63h7c3.85,0,6.8-.61,8.83-1.83s3.42-2.85,4.15-4.88,1.1-4.3,1.1-6.8c0-4.28-1.02-7.61-3.05-9.97-2.03-2.36-5.52-3.54-10.46-3.54-2.5,0-4.12.46-4.88,1.38-.76.92-1.14,2.79-1.14,5.62v40.36c0,1.95.16,3.42.49,4.39.33.98.96,1.63,1.91,1.95.95.33,2.35.54,4.19.65v1.63c-1.25-.11-2.81-.18-4.68-.2-1.87-.03-3.76-.04-5.65-.04-2.12,0-4.1.01-5.94.04-1.84.03-3.34.1-4.48.2v-1.63c1.84-.11,3.24-.32,4.19-.65.95-.33,1.59-.98,1.91-1.95.32-.98.49-2.44.49-4.39v-40.36c0-2.01-.16-3.49-.49-4.44-.32-.95-.96-1.6-1.91-1.95-.95-.35-2.35-.56-4.19-.61v-1.63ZM609.95,575.45c2.93.11,5.23.23,6.92.37,1.68.14,3.05.26,4.11.37,1.06.11,2.08.24,3.05.41,3.63.6,6.25,1.7,7.85,3.3,1.6,1.6,2.78,4.08,3.54,7.45l2.03,8.3c.54,2.39,1.1,4.11,1.67,5.17.57,1.06,1.45,1.56,2.65,1.51.92-.05,1.7-.35,2.32-.89.62-.54,1.29-1.27,2-2.2l1.22.89c-1.14,1.68-2.32,2.97-3.54,3.87-1.22.89-2.94,1.34-5.17,1.34-2.01,0-3.77-.6-5.29-1.79-1.52-1.19-2.66-3.53-3.42-7l-1.79-8.14c-.49-2.33-1.04-4.35-1.67-6.06s-1.49-3.05-2.6-4.03c-1.11-.98-2.75-1.46-4.92-1.46h-8.79l-.16-1.38Z"/>
    </g>
    <path class="cls-13" d="M716.64,546.56c-.22,1.9-.37,3.74-.45,5.53s-.12,3.15-.12,4.07c0,.98.03,1.91.08,2.81.05.89.11,1.64.16,2.24h-1.87c-.33-3.2-.79-5.74-1.39-7.61-.6-1.87-1.61-3.2-3.05-3.99-1.44-.79-3.59-1.18-6.47-1.18h-6.76c-1.84,0-3.24.15-4.19.45-.95.3-1.58.92-1.91,1.87-.32.95-.49,2.43-.49,4.44v40.36c0,1.95.16,3.42.49,4.39.33.98.96,1.61,1.91,1.91.95.3,2.35.45,4.19.45h5.94c3.42,0,6.01-.46,7.77-1.38,1.76-.92,3.04-2.43,3.83-4.52.79-2.09,1.37-4.92,1.75-8.5h1.87c-.16,1.46-.25,3.42-.25,5.86,0,1.03.04,2.51.12,4.44s.23,3.92.45,5.98c-2.77-.11-5.89-.18-9.36-.2-3.47-.03-6.56-.04-9.28-.04h-4.6c-1.87,0-3.89.01-6.06.04-2.17.03-4.37.05-6.59.08-2.23.03-4.34.07-6.35.12v-1.63c1.84-.11,3.24-.32,4.19-.65.95-.33,1.59-.98,1.91-1.95.32-.98.49-2.44.49-4.39v-40.36c0-2.01-.16-3.49-.49-4.44-.32-.95-.96-1.6-1.91-1.95-.95-.35-2.35-.56-4.19-.61v-1.63c2.01.05,4.12.1,6.35.12,2.22.03,4.42.05,6.59.08,2.17.03,4.19.04,6.06.04h4.6c2.49,0,5.33-.01,8.5-.04,3.17-.03,6.01-.09,8.5-.2ZM702.64,574.39v1.63h-14.89v-1.63h14.89ZM705,563.65c-.22,3.09-.31,5.45-.28,7.08.02,1.63.04,3.12.04,4.48s.02,2.85.08,4.48c.05,1.63.19,3.99.41,7.08h-1.87c-.22-1.73-.47-3.43-.77-5.09-.3-1.65-.95-3.01-1.95-4.07-1.01-1.06-2.7-1.59-5.09-1.59v-1.63c1.79,0,3.16-.37,4.11-1.1.95-.73,1.64-1.67,2.07-2.81.43-1.14.73-2.32.9-3.54.16-1.22.32-2.32.49-3.3h1.87Z"/>
    <path class="cls-13" d="M743.17,545.66c2.71,0,4.77.31,6.19.94,1.41.62,2.66,1.32,3.74,2.08.65.38,1.18.67,1.59.85.41.19.8.28,1.18.28.54,0,.94-.3,1.18-.9.24-.6.45-1.49.61-2.69h1.87c-.05.92-.12,2.02-.2,3.3-.08,1.27-.14,2.96-.16,5.05-.03,2.09-.04,4.84-.04,8.26h-1.87c-.16-2.6-.73-5.1-1.71-7.49-.98-2.39-2.4-4.34-4.27-5.86-1.87-1.52-4.33-2.28-7.37-2.28-2.87,0-5.25.87-7.12,2.6-1.87,1.74-2.81,4.02-2.81,6.84,0,2.44.62,4.49,1.87,6.14,1.25,1.66,2.92,3.15,5,4.48,2.09,1.33,4.36,2.75,6.8,4.27,2.82,1.74,5.33,3.46,7.53,5.17,2.2,1.71,3.93,3.59,5.21,5.66,1.27,2.06,1.91,4.56,1.91,7.49,0,3.47-.79,6.35-2.36,8.63s-3.66,3.99-6.27,5.13c-2.6,1.14-5.48,1.71-8.63,1.71-2.88,0-5.15-.33-6.83-.98-1.68-.65-3.12-1.33-4.31-2.03-1.19-.76-2.12-1.14-2.77-1.14-.54,0-.94.3-1.18.89-.25.6-.45,1.49-.61,2.69h-1.87c.11-1.14.17-2.48.2-4.03s.05-3.57.08-6.06c.03-2.49.04-5.64.04-9.44h1.87c.22,3.26.83,6.29,1.83,9.11,1,2.82,2.55,5.09,4.64,6.8,2.09,1.71,4.87,2.56,8.34,2.56,1.79,0,3.49-.37,5.09-1.1s2.92-1.9,3.95-3.5c1.03-1.6,1.55-3.68,1.55-6.23,0-2.22-.53-4.16-1.58-5.82-1.06-1.65-2.54-3.2-4.44-4.64-1.9-1.44-4.12-2.92-6.67-4.44-2.55-1.57-4.94-3.17-7.16-4.8-2.23-1.63-4-3.51-5.33-5.66-1.33-2.14-1.99-4.73-1.99-7.77,0-3.2.72-5.85,2.16-7.93,1.44-2.09,3.32-3.63,5.66-4.64,2.33-1,4.83-1.51,7.49-1.51Z"/>
    <path class="cls-13" d="M814.7,546.56c-.22,2.06-.37,4.06-.45,5.98-.08,1.93-.12,3.4-.12,4.44,0,1.3.03,2.52.08,3.66.05,1.14.11,2.14.16,3.01h-1.87c-.38-3.8-.89-6.8-1.55-8.99-.65-2.2-1.79-3.78-3.42-4.76-1.63-.98-4.15-1.46-7.57-1.46h-4.39v46.31c0,2.17.2,3.8.61,4.88.41,1.09,1.21,1.82,2.4,2.2,1.19.38,2.93.62,5.21.73v1.63c-1.41-.11-3.2-.18-5.37-.2-2.17-.03-4.37-.04-6.59-.04-2.44,0-4.73.01-6.88.04-2.15.03-3.87.1-5.17.2v-1.63c2.28-.11,4.01-.35,5.21-.73,1.19-.38,2-1.11,2.4-2.2.41-1.08.61-2.71.61-4.88v-46.31h-4.4c-3.37,0-5.87.49-7.53,1.46-1.66.98-2.81,2.56-3.46,4.76-.65,2.2-1.17,5.2-1.55,8.99h-1.87c.11-.87.18-1.87.2-3.01.03-1.14.04-2.36.04-3.66,0-1.03-.04-2.51-.12-4.44-.08-1.93-.23-3.92-.45-5.98,2.28.05,4.76.11,7.45.16,2.69.05,5.39.08,8.1.08h14.77c2.68,0,5.38-.03,8.1-.08,2.71-.05,5.18-.11,7.4-.16Z"/>
    <path class="cls-13" d="M841.47,546.15l19.86,51.19c.81,2.06,1.73,3.43,2.77,4.11,1.03.68,1.98,1.04,2.85,1.1v1.63c-1.09-.11-2.41-.18-3.99-.2-1.57-.03-3.15-.04-4.72-.04-2.12,0-4.1.01-5.94.04-1.85.03-3.34.1-4.48.2v-1.63c2.77-.11,4.53-.58,5.29-1.42.76-.84.6-2.65-.49-5.41l-15.14-40.45,1.3-1.06-14.16,36.79c-.87,2.17-1.38,4-1.55,5.49-.16,1.49-.01,2.67.45,3.54.46.87,1.25,1.49,2.36,1.87,1.11.38,2.51.6,4.19.65v1.63c-1.52-.11-3.11-.18-4.76-.2-1.66-.03-3.19-.04-4.6-.04s-2.51.01-3.46.04c-.95.03-1.83.1-2.65.2v-1.63c1.09-.27,2.2-.91,3.34-1.91,1.14-1,2.17-2.73,3.09-5.17l19.13-49.32h1.3ZM851.4,580.74v1.63h-24.25l.82-1.63h23.44Z"/>
    <path class="cls-13" d="M912.52,546.56c-.22,2.06-.37,4.06-.45,5.98-.08,1.93-.12,3.4-.12,4.44,0,1.3.03,2.52.08,3.66.05,1.14.11,2.14.16,3.01h-1.87c-.38-3.8-.89-6.8-1.55-8.99-.65-2.2-1.79-3.78-3.42-4.76-1.63-.98-4.15-1.46-7.57-1.46h-4.39v46.31c0,2.17.2,3.8.61,4.88.41,1.09,1.21,1.82,2.4,2.2,1.19.38,2.93.62,5.21.73v1.63c-1.41-.11-3.2-.18-5.37-.2-2.17-.03-4.37-.04-6.59-.04-2.44,0-4.73.01-6.88.04-2.15.03-3.87.1-5.17.2v-1.63c2.28-.11,4.01-.35,5.21-.73,1.19-.38,2-1.11,2.4-2.2.41-1.08.61-2.71.61-4.88v-46.31h-4.4c-3.37,0-5.87.49-7.53,1.46-1.66.98-2.81,2.56-3.46,4.76-.65,2.2-1.17,5.2-1.55,8.99h-1.87c.11-.87.18-1.87.2-3.01.03-1.14.04-2.36.04-3.66,0-1.03-.04-2.51-.12-4.44-.08-1.93-.23-3.92-.45-5.98,2.28.05,4.76.11,7.45.16,2.69.05,5.39.08,8.1.08h14.77c2.68,0,5.38-.03,8.1-.08,2.71-.05,5.18-.11,7.4-.16Z"/>
    <path class="cls-13" d="M959.15,546.56c-.22,1.9-.37,3.74-.45,5.53-.08,1.79-.12,3.15-.12,4.07,0,.98.03,1.91.08,2.81.05.89.11,1.64.16,2.24h-1.87c-.32-3.2-.79-5.74-1.38-7.61-.6-1.87-1.61-3.2-3.05-3.99-1.44-.79-3.59-1.18-6.47-1.18h-6.75c-1.85,0-3.24.15-4.19.45-.95.3-1.59.92-1.91,1.87-.33.95-.49,2.43-.49,4.44v40.36c0,1.95.16,3.42.49,4.39.32.98.96,1.61,1.91,1.91.95.3,2.35.45,4.19.45h5.94c3.42,0,6.01-.46,7.77-1.38,1.76-.92,3.04-2.43,3.82-4.52.79-2.09,1.37-4.92,1.75-8.5h1.87c-.16,1.46-.24,3.42-.24,5.86,0,1.03.04,2.51.12,4.44.08,1.93.23,3.92.45,5.98-2.77-.11-5.89-.18-9.36-.2-3.47-.03-6.56-.04-9.28-.04h-4.6c-1.87,0-3.89.01-6.06.04-2.17.03-4.37.05-6.59.08-2.23.03-4.34.07-6.35.12v-1.63c1.84-.11,3.24-.32,4.19-.65.95-.33,1.59-.98,1.91-1.95.32-.98.49-2.44.49-4.39v-40.36c0-2.01-.16-3.49-.49-4.44-.33-.95-.97-1.6-1.91-1.95-.95-.35-2.35-.56-4.19-.61v-1.63c2.01.05,4.12.1,6.35.12,2.22.03,4.42.05,6.59.08,2.17.03,4.19.04,6.06.04h4.6c2.5,0,5.33-.01,8.5-.04,3.17-.03,6.01-.09,8.51-.2ZM945.15,574.39v1.63h-14.89v-1.63h14.89ZM947.51,563.65c-.22,3.09-.31,5.45-.29,7.08.03,1.63.04,3.12.04,4.48s.03,2.85.08,4.48c.05,1.63.19,3.99.41,7.08h-1.87c-.22-1.73-.48-3.43-.77-5.09-.3-1.65-.95-3.01-1.95-4.07-1-1.06-2.7-1.59-5.09-1.59v-1.63c1.79,0,3.16-.37,4.11-1.1.95-.73,1.64-1.67,2.08-2.81.43-1.14.73-2.32.89-3.54.16-1.22.33-2.32.49-3.3h1.87Z"/>
    <path class="cls-13" d="M987.39,545.66c2.71,0,4.77.31,6.19.94,1.41.62,2.66,1.32,3.74,2.08.65.38,1.18.67,1.59.85.41.19.8.28,1.18.28.54,0,.94-.3,1.18-.9.24-.6.45-1.49.61-2.69h1.87c-.05.92-.12,2.02-.2,3.3-.08,1.27-.14,2.96-.16,5.05-.03,2.09-.04,4.84-.04,8.26h-1.87c-.16-2.6-.73-5.1-1.71-7.49-.98-2.39-2.4-4.34-4.27-5.86-1.87-1.52-4.33-2.28-7.37-2.28-2.87,0-5.25.87-7.12,2.6-1.87,1.74-2.81,4.02-2.81,6.84,0,2.44.62,4.49,1.87,6.14,1.25,1.66,2.92,3.15,5,4.48,2.09,1.33,4.36,2.75,6.8,4.27,2.82,1.74,5.33,3.46,7.53,5.17,2.2,1.71,3.93,3.59,5.21,5.66,1.27,2.06,1.91,4.56,1.91,7.49,0,3.47-.79,6.35-2.36,8.63-1.57,2.28-3.66,3.99-6.27,5.13-2.6,1.14-5.48,1.71-8.63,1.71-2.88,0-5.15-.33-6.83-.98-1.68-.65-3.12-1.33-4.31-2.03-1.19-.76-2.12-1.14-2.77-1.14-.54,0-.94.3-1.18.89-.25.6-.45,1.49-.61,2.69h-1.87c.11-1.14.17-2.48.2-4.03s.05-3.57.08-6.06c.03-2.49.04-5.64.04-9.44h1.87c.22,3.26.83,6.29,1.83,9.11,1,2.82,2.55,5.09,4.64,6.8,2.09,1.71,4.87,2.56,8.34,2.56,1.79,0,3.49-.37,5.09-1.1s2.92-1.9,3.95-3.5c1.03-1.6,1.55-3.68,1.55-6.23,0-2.22-.53-4.16-1.58-5.82-1.06-1.65-2.54-3.2-4.44-4.64-1.9-1.44-4.12-2.92-6.67-4.44-2.55-1.57-4.94-3.17-7.16-4.8s-4-3.51-5.33-5.66c-1.33-2.14-1.99-4.73-1.99-7.77,0-3.2.72-5.85,2.16-7.93,1.44-2.09,3.32-3.63,5.66-4.64,2.33-1,4.83-1.51,7.49-1.51Z"/>
  </g>
  <g>
    <path class="cls-13" d="M309.18,650.23c-3.37,0-6.02-.96-7.95-2.89-1.93-1.93-2.89-4.75-2.89-8.46v-14.58h3.66v14.43c0,2.86.63,4.94,1.89,6.26s3.03,1.98,5.33,1.98,4.11-.66,5.37-1.98c1.26-1.32,1.89-3.41,1.89-6.26v-14.43h3.55v14.58c0,3.71-.96,6.53-2.87,8.46-1.92,1.93-4.57,2.89-7.97,2.89Z"/>
    <path class="cls-13" d="M338.96,630.35c1.59,0,2.98.31,4.19.92,1.21.61,2.16,1.54,2.84,2.78.68,1.24,1.03,2.82,1.03,4.72v11.17h-3.52v-10.77c0-1.88-.46-3.3-1.37-4.25s-2.2-1.43-3.86-1.43c-1.25,0-2.33.24-3.26.73-.93.49-1.64,1.21-2.14,2.16-.5.95-.75,2.14-.75,3.55v10h-3.52v-19.41h3.37v5.24l-.55-1.39c.64-1.27,1.61-2.26,2.93-2.97,1.32-.71,2.86-1.06,4.61-1.06Z"/>
    <path class="cls-13" d="M355.07,649.94v-27.17h3.51v27.17h-3.51Z"/>
    <path class="cls-13" d="M375.17,650.16c-1.93,0-3.66-.43-5.18-1.28-1.53-.85-2.73-2.03-3.61-3.53-.88-1.5-1.32-3.2-1.32-5.11s.44-3.63,1.32-5.11c.88-1.48,2.07-2.64,3.59-3.5,1.51-.85,3.25-1.28,5.2-1.28s3.66.42,5.18,1.26c1.53.84,2.72,2.01,3.59,3.5.87,1.49,1.3,3.2,1.3,5.13s-.43,3.64-1.3,5.13c-.87,1.49-2.06,2.66-3.59,3.52-1.53.85-3.25,1.28-5.18,1.28ZM375.17,647.08c1.24,0,2.36-.28,3.35-.84.99-.56,1.76-1.36,2.32-2.4.56-1.04.84-2.24.84-3.61s-.28-2.59-.84-3.61c-.56-1.01-1.34-1.8-2.32-2.36-.99-.56-2.11-.84-3.35-.84s-2.36.28-3.33.84c-.98.56-1.76,1.35-2.34,2.36-.58,1.01-.88,2.22-.88,3.61s.29,2.57.88,3.61c.59,1.04,1.37,1.84,2.34,2.4.98.56,2.09.84,3.33.84Z"/>
    <path class="cls-13" d="M400.15,650.16c-1.98,0-3.74-.43-5.29-1.28-1.55-.85-2.77-2.03-3.64-3.52-.88-1.49-1.32-3.2-1.32-5.13s.44-3.64,1.32-5.13c.88-1.49,2.09-2.65,3.64-3.5,1.55-.84,3.31-1.26,5.29-1.26,1.76,0,3.33.35,4.7,1.04,1.38.7,2.45,1.73,3.2,3.09l-2.67,1.72c-.63-.95-1.41-1.65-2.32-2.11s-1.9-.68-2.95-.68c-1.27,0-2.4.28-3.4.84-1,.56-1.8,1.35-2.38,2.36-.58,1.01-.88,2.22-.88,3.61s.29,2.6.88,3.63c.59,1.03,1.38,1.82,2.38,2.38,1,.56,2.14.84,3.4.84,1.05,0,2.03-.23,2.95-.68s1.69-1.15,2.32-2.11l2.67,1.68c-.76,1.34-1.82,2.37-3.2,3.09-1.38.72-2.95,1.08-4.7,1.08Z"/>
    <path class="cls-13" d="M413.89,649.94v-27.17h3.51v27.17h-3.51ZM416.74,645.25l.07-4.51,11.17-10.22h4.25l-8.57,8.42-1.91,1.61-5.02,4.69ZM428.72,649.94l-7.62-9.45,2.27-2.82,9.67,12.27h-4.32Z"/>
    <path class="cls-13" d="M439.52,626.79c-.68,0-1.25-.22-1.7-.66-.45-.44-.68-.98-.68-1.61s.23-1.21.68-1.65c.45-.44,1.02-.66,1.7-.66s1.25.21,1.7.64c.45.43.68.96.68,1.59s-.22,1.21-.66,1.67c-.44.45-1.01.68-1.72.68ZM437.76,649.94v-19.41h3.51v19.41h-3.51Z"/>
    <path class="cls-13" d="M459.92,630.35c1.59,0,2.99.31,4.19.92,1.21.61,2.15,1.54,2.84,2.78.68,1.24,1.03,2.82,1.03,4.72v11.17h-3.51v-10.77c0-1.88-.46-3.3-1.37-4.25-.92-.95-2.21-1.43-3.86-1.43-1.24,0-2.33.24-3.26.73-.93.49-1.64,1.21-2.14,2.16-.5.95-.75,2.14-.75,3.55v10h-3.52v-19.41h3.37v5.24l-.55-1.39c.63-1.27,1.61-2.26,2.93-2.97,1.32-.71,2.86-1.06,4.61-1.06Z"/>
    <path class="cls-13" d="M484.2,649.13c-1.88,0-3.56-.4-5.04-1.19-1.48-.79-2.65-1.9-3.52-3.31-.87-1.42-1.3-3.05-1.3-4.91s.43-3.52,1.3-4.93c.87-1.4,2.04-2.5,3.52-3.28,1.48-.78,3.15-1.17,5.04-1.17,1.66,0,3.17.34,4.54,1.01,1.37.67,2.46,1.7,3.28,3.09.82,1.39,1.23,3.15,1.23,5.27s-.41,3.85-1.23,5.24c-.82,1.39-1.91,2.44-3.28,3.13-1.37.7-2.88,1.04-4.54,1.04ZM484.64,657.26c-1.78,0-3.51-.25-5.18-.75-1.67-.5-3.04-1.21-4.08-2.14l1.69-2.71c.9.78,2.01,1.4,3.33,1.85,1.32.45,2.7.68,4.14.68,2.29,0,3.98-.54,5.05-1.61,1.07-1.08,1.61-2.71,1.61-4.91v-4.1l.37-3.85-.18-3.88v-5.31h3.33v16.77c0,3.42-.86,5.93-2.56,7.54-1.71,1.61-4.21,2.42-7.51,2.42ZM484.6,646.06c1.29,0,2.44-.27,3.44-.81,1-.54,1.79-1.28,2.36-2.23.57-.95.86-2.05.86-3.3s-.29-2.34-.86-3.3c-.57-.95-1.36-1.69-2.36-2.22-1-.52-2.15-.79-3.44-.79s-2.45.26-3.46.79-1.81,1.26-2.38,2.22c-.57.95-.86,2.05-.86,3.3s.29,2.34.86,3.3c.57.95,1.37,1.7,2.38,2.23,1.01.54,2.17.81,3.46.81Z"/>
    <path class="cls-13" d="M518.59,646.75h14.94v3.19h-18.6v-25.64h18.09v3.19h-14.43v19.26ZM518.26,635.36h13.19v3.11h-13.19v-3.11Z"/>
    <path class="cls-13" d="M537.23,649.94l8.35-10.84-.04,1.79-7.95-10.36h3.92l6.08,7.98h-1.5l6.08-7.98h3.84l-8.06,10.44.04-1.87,8.42,10.84h-3.99l-6.41-8.5,1.43.22-6.3,8.28h-3.92Z"/>
    <path class="cls-13" d="M569.64,650.16c-1.98,0-3.74-.43-5.29-1.28-1.55-.85-2.77-2.03-3.65-3.52-.88-1.49-1.32-3.2-1.32-5.13s.44-3.64,1.32-5.13c.88-1.49,2.09-2.65,3.65-3.5,1.55-.84,3.31-1.26,5.29-1.26,1.76,0,3.33.35,4.71,1.04,1.38.7,2.45,1.73,3.2,3.09l-2.67,1.72c-.64-.95-1.41-1.65-2.33-2.11s-1.9-.68-2.95-.68c-1.27,0-2.41.28-3.41.84-1,.56-1.79,1.35-2.38,2.36-.59,1.01-.88,2.22-.88,3.61s.29,2.6.88,3.63c.59,1.03,1.38,1.82,2.38,2.38,1,.56,2.14.84,3.41.84,1.05,0,2.03-.23,2.95-.68.92-.45,1.69-1.15,2.33-2.11l2.67,1.68c-.76,1.34-1.83,2.37-3.2,3.09-1.38.72-2.95,1.08-4.71,1.08Z"/>
    <path class="cls-13" d="M591.98,650.16c-2.08,0-3.9-.43-5.47-1.28-1.58-.85-2.8-2.03-3.66-3.52-.87-1.49-1.3-3.2-1.3-5.13s.42-3.64,1.26-5.13c.84-1.49,2-2.65,3.48-3.5,1.48-.84,3.14-1.26,5-1.26s3.54.41,4.98,1.24c1.44.83,2.57,2,3.39,3.5.82,1.5,1.23,3.25,1.23,5.26,0,.15,0,.32-.02.51-.01.2-.03.38-.05.55h-16.52v-2.53h14.69l-1.43.88c.02-1.25-.23-2.36-.77-3.33-.54-.98-1.28-1.74-2.22-2.29-.94-.55-2.03-.82-3.28-.82s-2.31.28-3.26.82c-.95.55-1.7,1.32-2.23,2.31-.54.99-.81,2.12-.81,3.39v.59c0,1.29.3,2.45.9,3.46.6,1.01,1.43,1.8,2.51,2.36,1.07.56,2.31.84,3.7.84,1.15,0,2.19-.2,3.13-.59.94-.39,1.76-.98,2.47-1.76l1.94,2.27c-.88,1.03-1.97,1.81-3.28,2.34-1.3.54-2.76.81-4.38.81Z"/>
    <path class="cls-13" d="M607.29,649.94v-27.17h3.52v27.17h-3.52Z"/>
    <path class="cls-13" d="M619.08,649.94v-27.17h3.52v27.17h-3.52Z"/>
    <path class="cls-13" d="M639.52,650.16c-2.08,0-3.9-.43-5.47-1.28-1.58-.85-2.8-2.03-3.66-3.52-.87-1.49-1.3-3.2-1.3-5.13s.42-3.64,1.26-5.13c.84-1.49,2-2.65,3.48-3.5,1.48-.84,3.14-1.26,5-1.26s3.54.41,4.98,1.24c1.44.83,2.57,2,3.39,3.5.82,1.5,1.23,3.25,1.23,5.26,0,.15,0,.32-.02.51-.01.2-.03.38-.05.55h-16.52v-2.53h14.69l-1.43.88c.02-1.25-.23-2.36-.77-3.33-.54-.98-1.28-1.74-2.22-2.29-.94-.55-2.03-.82-3.28-.82s-2.31.28-3.26.82c-.95.55-1.7,1.32-2.23,2.31-.54.99-.81,2.12-.81,3.39v.59c0,1.29.3,2.45.9,3.46.6,1.01,1.43,1.8,2.51,2.36,1.07.56,2.31.84,3.7.84,1.15,0,2.19-.2,3.13-.59.94-.39,1.76-.98,2.47-1.76l1.94,2.27c-.88,1.03-1.97,1.81-3.28,2.34-1.3.54-2.76.81-4.38.81Z"/>
    <path class="cls-13" d="M665.19,630.35c1.59,0,2.99.31,4.19.92,1.21.61,2.15,1.54,2.84,2.78.68,1.24,1.03,2.82,1.03,4.72v11.17h-3.51v-10.77c0-1.88-.46-3.3-1.37-4.25s-2.21-1.43-3.86-1.43c-1.24,0-2.33.24-3.26.73-.93.49-1.64,1.21-2.14,2.16-.5.95-.75,2.14-.75,3.55v10h-3.52v-19.41h3.37v5.24l-.55-1.39c.63-1.27,1.61-2.26,2.93-2.97,1.32-.71,2.86-1.06,4.61-1.06Z"/>
    <path class="cls-13" d="M689.91,650.16c-1.98,0-3.74-.43-5.29-1.28-1.55-.85-2.77-2.03-3.65-3.52-.88-1.49-1.32-3.2-1.32-5.13s.44-3.64,1.32-5.13c.88-1.49,2.09-2.65,3.65-3.5,1.55-.84,3.31-1.26,5.29-1.26,1.76,0,3.33.35,4.71,1.04,1.38.7,2.45,1.73,3.2,3.09l-2.67,1.72c-.64-.95-1.41-1.65-2.33-2.11s-1.9-.68-2.95-.68c-1.27,0-2.41.28-3.41.84-1,.56-1.79,1.35-2.38,2.36-.59,1.01-.88,2.22-.88,3.61s.29,2.6.88,3.63c.59,1.03,1.38,1.82,2.38,2.38,1,.56,2.14.84,3.41.84,1.05,0,2.03-.23,2.95-.68s1.69-1.15,2.33-2.11l2.67,1.68c-.76,1.34-1.83,2.37-3.2,3.09-1.38.72-2.95,1.08-4.71,1.08Z"/>
    <path class="cls-13" d="M712.25,650.16c-2.07,0-3.9-.43-5.47-1.28-1.57-.85-2.79-2.03-3.66-3.52-.87-1.49-1.3-3.2-1.3-5.13s.42-3.64,1.26-5.13c.84-1.49,2-2.65,3.48-3.5,1.48-.84,3.14-1.26,5-1.26s3.54.41,4.98,1.24c1.44.83,2.57,2,3.39,3.5.82,1.5,1.23,3.25,1.23,5.26,0,.15,0,.32-.02.51-.01.2-.03.38-.05.55h-16.52v-2.53h14.68l-1.43.88c.02-1.25-.23-2.36-.77-3.33-.54-.98-1.28-1.74-2.22-2.29-.94-.55-2.03-.82-3.28-.82s-2.31.28-3.26.82c-.95.55-1.7,1.32-2.23,2.31-.54.99-.81,2.12-.81,3.39v.59c0,1.29.3,2.45.9,3.46s1.43,1.8,2.51,2.36c1.08.56,2.31.84,3.7.84,1.15,0,2.19-.2,3.13-.59.94-.39,1.76-.98,2.47-1.76l1.94,2.27c-.88,1.03-1.97,1.81-3.28,2.34-1.31.54-2.77.81-4.38.81Z"/>
    <path class="cls-13" d="M740.74,626.79c-.68,0-1.25-.22-1.7-.66-.45-.44-.68-.98-.68-1.61s.23-1.21.68-1.65c.45-.44,1.02-.66,1.7-.66s1.25.21,1.7.64c.45.43.68.96.68,1.59s-.22,1.21-.66,1.67c-.44.45-1.01.68-1.72.68ZM738.99,649.94v-19.41h3.51v19.41h-3.51Z"/>
    <path class="cls-13" d="M761.14,630.35c1.59,0,2.99.31,4.19.92,1.21.61,2.16,1.54,2.84,2.78.68,1.24,1.03,2.82,1.03,4.72v11.17h-3.52v-10.77c0-1.88-.46-3.3-1.37-4.25s-2.2-1.43-3.86-1.43c-1.25,0-2.33.24-3.26.73-.93.49-1.64,1.21-2.14,2.16-.5.95-.75,2.14-.75,3.55v10h-3.51v-19.41h3.37v5.24l-.55-1.39c.63-1.27,1.61-2.26,2.93-2.97,1.32-.71,2.86-1.06,4.61-1.06Z"/>
    <path class="cls-13" d="M789.19,649.94v-25.64h10c2.25,0,4.16.35,5.75,1.06,1.59.71,2.81,1.73,3.66,3.08.85,1.34,1.28,2.94,1.28,4.8s-.43,3.45-1.28,4.78c-.86,1.33-2.08,2.35-3.66,3.06-1.59.71-3.5,1.06-5.75,1.06h-7.98l1.65-1.68v9.48h-3.66ZM792.86,640.82l-1.65-1.8h7.87c2.34,0,4.12-.51,5.33-1.52,1.21-1.01,1.81-2.44,1.81-4.27s-.6-3.25-1.81-4.25c-1.21-1-2.99-1.5-5.33-1.5h-7.87l1.65-1.83v15.16ZM806.34,649.94l-6.52-9.3h3.92l6.59,9.3h-3.99Z"/>
    <path class="cls-13" d="M825.52,650.16c-2.08,0-3.9-.43-5.47-1.28-1.58-.85-2.8-2.03-3.66-3.52-.87-1.49-1.3-3.2-1.3-5.13s.42-3.64,1.26-5.13c.84-1.49,2-2.65,3.48-3.5,1.48-.84,3.14-1.26,5-1.26s3.54.41,4.98,1.24c1.44.83,2.57,2,3.39,3.5.82,1.5,1.23,3.25,1.23,5.26,0,.15,0,.32-.02.51-.01.2-.03.38-.05.55h-16.52v-2.53h14.69l-1.43.88c.02-1.25-.23-2.36-.77-3.33-.54-.98-1.28-1.74-2.22-2.29-.94-.55-2.03-.82-3.28-.82s-2.31.28-3.26.82c-.95.55-1.7,1.32-2.23,2.31-.54.99-.81,2.12-.81,3.39v.59c0,1.29.3,2.45.9,3.46.6,1.01,1.43,1.8,2.51,2.36,1.07.56,2.31.84,3.7.84,1.15,0,2.19-.2,3.13-.59.94-.39,1.76-.98,2.47-1.76l1.94,2.27c-.88,1.03-1.97,1.81-3.28,2.34-1.3.54-2.76.81-4.38.81Z"/>
    <path class="cls-13" d="M845.96,650.16c-1.44,0-2.7-.24-3.79-.73-1.09-.49-1.92-1.17-2.51-2.03s-.88-1.85-.88-2.95.25-2,.75-2.86,1.32-1.54,2.45-2.05c1.13-.51,2.67-.77,4.6-.77h6.15v2.53h-6.01c-1.76,0-2.94.29-3.55.88-.61.59-.92,1.29-.92,2.12,0,.95.38,1.72,1.14,2.29.76.57,1.8.86,3.15.86s2.47-.29,3.46-.88c.99-.59,1.7-1.44,2.14-2.56l.69,2.42c-.46,1.15-1.28,2.06-2.45,2.73-1.17.67-2.65,1.01-4.43,1.01ZM852.33,649.94v-4.1l-.18-.77v-6.99c0-1.49-.43-2.64-1.3-3.46-.87-.82-2.17-1.23-3.9-1.23-1.15,0-2.27.19-3.37.57-1.1.38-2.03.88-2.78,1.52l-1.46-2.64c1-.81,2.2-1.42,3.61-1.85,1.4-.43,2.87-.64,4.41-.64,2.66,0,4.71.65,6.15,1.94,1.44,1.29,2.16,3.27,2.16,5.93v11.72h-3.33Z"/>
    <path class="cls-13" d="M863.76,649.94v-27.17h3.51v27.17h-3.51Z"/>
    <path class="cls-13" d="M891.11,646.75h14.94v3.19h-18.6v-25.64h18.09v3.19h-14.43v19.26ZM890.79,635.36h13.18v3.11h-13.18v-3.11Z"/>
    <path class="cls-13" d="M918.33,650.16c-1.61,0-3.14-.22-4.6-.66-1.45-.44-2.59-.98-3.42-1.61l1.46-2.78c.83.56,1.85,1.04,3.08,1.43,1.22.39,2.47.59,3.73.59,1.64,0,2.81-.23,3.53-.7s1.08-1.11,1.08-1.94c0-.61-.22-1.09-.66-1.43s-1.02-.6-1.74-.77c-.72-.17-1.52-.32-2.4-.46-.88-.13-1.76-.31-2.63-.51-.88-.21-1.69-.5-2.42-.88-.73-.38-1.32-.9-1.76-1.57-.44-.67-.66-1.57-.66-2.69s.33-2.2.99-3.08c.66-.88,1.59-1.56,2.8-2.03,1.21-.48,2.64-.71,4.3-.71,1.27,0,2.56.15,3.86.46s2.37.74,3.2,1.3l-1.5,2.78c-.88-.59-1.79-.99-2.75-1.21-.95-.22-1.9-.33-2.86-.33-1.54,0-2.68.25-3.44.75-.76.5-1.13,1.14-1.13,1.92,0,.66.23,1.17.68,1.52.45.35,1.04.63,1.76.82.72.2,1.52.36,2.4.49.88.13,1.76.31,2.64.51.88.21,1.68.49,2.4.86s1.3.88,1.76,1.54c.45.66.68,1.54.68,2.64,0,1.17-.34,2.19-1.03,3.04-.68.85-1.65,1.52-2.89,2-1.25.48-2.73.71-4.47.71Z"/>
    <path class="cls-13" d="M929.9,633.42v-2.89h12.38v2.89h-12.38ZM939.35,650.16c-1.95,0-3.47-.52-4.54-1.57-1.07-1.05-1.61-2.55-1.61-4.5v-17.8h3.51v17.65c0,1.05.26,1.86.79,2.42.52.56,1.28.84,2.25.84,1.1,0,2.01-.31,2.75-.92l1.1,2.53c-.54.46-1.18.81-1.92,1.03-.74.22-1.52.33-2.32.33Z"/>
    <path class="cls-13" d="M955.09,650.16c-1.44,0-2.7-.24-3.79-.73s-1.92-1.17-2.51-2.03c-.59-.87-.88-1.85-.88-2.95s.25-2,.75-2.86,1.32-1.54,2.45-2.05c1.13-.51,2.67-.77,4.6-.77h6.15v2.53h-6.01c-1.76,0-2.94.29-3.55.88-.61.59-.92,1.29-.92,2.12,0,.95.38,1.72,1.14,2.29.76.57,1.8.86,3.15.86s2.47-.29,3.46-.88c.99-.59,1.7-1.44,2.14-2.56l.69,2.42c-.46,1.15-1.28,2.06-2.45,2.73-1.17.67-2.65,1.01-4.43,1.01ZM961.47,649.94v-4.1l-.18-.77v-6.99c0-1.49-.43-2.64-1.3-3.46-.87-.82-2.17-1.23-3.9-1.23-1.15,0-2.27.19-3.37.57-1.1.38-2.03.88-2.78,1.52l-1.46-2.64c1-.81,2.2-1.42,3.61-1.85,1.4-.43,2.87-.64,4.41-.64,2.66,0,4.71.65,6.15,1.94,1.44,1.29,2.16,3.27,2.16,5.93v11.72h-3.33Z"/>
    <path class="cls-13" d="M970.11,633.42v-2.89h12.38v2.89h-12.38ZM979.56,650.16c-1.95,0-3.47-.52-4.54-1.57-1.07-1.05-1.61-2.55-1.61-4.5v-17.8h3.51v17.65c0,1.05.26,1.86.79,2.42.52.56,1.28.84,2.25.84,1.1,0,2.01-.31,2.75-.92l1.1,2.53c-.54.46-1.18.81-1.92,1.03-.74.22-1.52.33-2.32.33Z"/>
    <path class="cls-13" d="M997.61,650.16c-2.07,0-3.9-.43-5.47-1.28-1.57-.85-2.79-2.03-3.66-3.52-.87-1.49-1.3-3.2-1.3-5.13s.42-3.64,1.26-5.13c.84-1.49,2-2.65,3.48-3.5,1.48-.84,3.14-1.26,5-1.26s3.54.41,4.98,1.24c1.44.83,2.57,2,3.39,3.5.82,1.5,1.23,3.25,1.23,5.26,0,.15,0,.32-.02.51-.01.2-.03.38-.05.55h-16.52v-2.53h14.68l-1.43.88c.02-1.25-.23-2.36-.77-3.33-.54-.98-1.28-1.74-2.22-2.29-.94-.55-2.03-.82-3.28-.82s-2.31.28-3.26.82c-.95.55-1.7,1.32-2.23,2.31-.54.99-.81,2.12-.81,3.39v.59c0,1.29.3,2.45.9,3.46s1.43,1.8,2.51,2.36c1.08.56,2.31.84,3.7.84,1.15,0,2.19-.2,3.13-.59.94-.39,1.76-.98,2.47-1.76l1.94,2.27c-.88,1.03-1.97,1.81-3.28,2.34-1.31.54-2.77.81-4.38.81Z"/>
  </g>
  <g>
    <g>
      <path class="cls-9" d="M232.67,546.43l36.57,23.27v79.9h-36.57v-103.17M232.32,545.79v104.16h37.27v-80.44l-37.27-23.72h0Z"/>
      <path class="cls-73" d="M233.15,547.75l35.66,22.7v77.91h-35.66v-100.61M232.8,547.12v101.58h36.35v-78.45l-36.35-23.13h0Z"/>
      <path class="cls-80" d="M233.62,549.07l34.75,22.12v75.93h-34.75v-98.05M233.28,548.45v99h35.43v-76.45l-35.43-22.55h0Z"/>
      <path class="cls-141" d="M234.1,550.39l33.84,21.54v73.94h-33.84v-95.49M233.76,549.78v96.42h34.5v-74.46l-34.5-21.97h0Z"/>
      <path class="cls-37" d="M234.57,551.71l32.93,20.97v71.96h-32.93v-92.93M234.25,551.11v93.84h33.58v-72.46l-33.58-21.38h0Z"/>
      <path class="cls-22" d="M235.05,553.03l32.02,20.39v69.97h-32.02v-90.36M234.73,552.45v91.26h32.66v-70.47l-32.66-20.8h0Z"/>
      <path class="cls-78" d="M235.52,554.35l31.11,19.82v67.99h-31.11v-87.8M235.21,553.78v88.69h31.74v-68.47l-31.74-20.22h0Z"/>
      <path class="cls-106" d="M236,555.67l30.2,19.24v66h-30.2v-85.24M235.69,555.11v86.11h30.81v-66.48l-30.81-19.63h0Z"/>
      <path class="cls-88" d="M236.47,556.99l29.29,18.67v64.02h-29.29v-82.68M236.17,556.44v83.53h29.89v-64.48l-29.89-19.05h0Z"/>
      <path class="cls-133" d="M236.95,558.31l28.38,18.09v62.03h-28.38v-80.12M236.65,557.77v80.95h28.97v-62.49l-28.97-18.46h0Z"/>
      <path class="cls-30" d="M237.42,559.62l27.47,17.52v60.05h-27.47v-77.56M237.13,559.1v78.37h28.05v-60.49l-28.05-17.88h0Z"/>
      <path class="cls-2" d="M237.9,560.94l26.56,16.94v58.06h-26.56v-75M237.62,560.44v75.79h27.12v-58.49l-27.12-17.3h0Z"/>
      <path class="cls-56" d="M238.37,562.26l25.65,16.36v56.08h-25.65v-72.44M238.1,561.77v73.21h26.2v-56.5l-26.2-16.71h0Z"/>
      <path class="cls-72" d="M238.84,563.58l24.74,15.79v54.09h-24.74v-69.88M238.58,563.1v70.63h25.28v-54.5l-25.28-16.13h0Z"/>
      <path class="cls-29" d="M239.32,564.9l23.84,15.21v52.11h-23.84v-67.32M239.06,564.43v68.05h24.35v-52.51l-24.35-15.54h0Z"/>
      <path class="cls-60" d="M239.79,566.22l22.93,14.64v50.12h-22.93v-64.76M239.54,565.76v65.48h23.43v-50.51l-23.43-14.96h0Z"/>
      <path class="cls-4" d="M240.27,567.54l22.02,14.06v48.14h-22.02v-62.2M240.02,567.09v62.9h22.51v-48.52l-22.51-14.38h0Z"/>
      <path class="cls-112" d="M240.74,568.86l21.11,13.49v46.15h-21.11v-59.64M240.5,568.43v60.32h21.59v-46.52l-21.59-13.79h0Z"/>
      <path class="cls-7" d="M241.22,570.18l20.2,12.91v44.17h-20.2v-57.08M240.99,569.76v57.74h20.66v-44.53l-20.66-13.21h0Z"/>
      <path class="cls-71" d="M241.69,571.5l19.29,12.34v42.18h-19.29v-54.52M241.47,571.09v55.16h19.74v-42.53l-19.74-12.63h0Z"/>
      <path class="cls-21" d="M242.17,572.82l18.38,11.76v40.2h-18.38v-51.96M241.95,572.42v52.58h18.82v-40.54l-18.82-12.04h0Z"/>
      <path class="cls-61" d="M242.64,574.14l17.47,11.18v38.21h-17.47v-49.4M242.43,573.75v50h17.9v-38.54l-17.9-11.46h0Z"/>
      <path class="cls-57" d="M243.12,575.46l16.56,10.61v36.23h-16.56v-46.84M242.91,575.08v47.42h16.97v-36.55l-16.97-10.87h0Z"/>
      <path class="cls-108" d="M243.59,576.78l15.65,10.03v34.24h-15.65v-44.28M243.39,576.42v44.84h16.05v-34.55l-16.05-10.29h0Z"/>
      <path class="cls-58" d="M244.07,578.1l14.74,9.46v32.26h-14.74v-41.72M243.87,577.75v42.27h15.13v-32.56l-15.13-9.71h0Z"/>
      <path class="cls-109" d="M244.54,579.42l13.83,8.88v30.27h-13.83v-39.16M244.36,579.08v39.69h14.2v-30.56l-14.2-9.12h0Z"/>
      <path class="cls-89" d="M245.02,580.74l12.92,8.31v28.29h-12.92v-36.6M244.84,580.41v37.11h13.28v-28.57l-13.28-8.54h0Z"/>
      <path class="cls-130" d="M245.49,582.06l12.01,7.73v26.3h-12.01v-34.04M245.32,581.74v34.53h12.36v-26.57l-12.36-7.96h0Z"/>
      <path class="cls-122" d="M245.97,583.38l11.1,7.16v24.32h-11.1v-31.48M245.8,583.07v31.95h11.44v-24.58l-11.44-7.37h0Z"/>
      <path class="cls-114" d="M246.44,584.7l10.19,6.58v22.33h-10.19v-28.92M246.28,584.41v29.37h10.51v-22.58l-10.51-6.79h0Z"/>
      <path class="cls-39" d="M246.92,586.02l9.28,6v20.35h-9.28v-26.35M246.76,585.74v26.79h9.59v-20.59l-9.59-6.2h0Z"/>
      <path class="cls-68" d="M247.39,587.34l8.37,5.43v18.37h-8.37v-23.79M247.24,587.07v24.21h8.67v-18.59l-8.67-5.62h0Z"/>
      <path class="cls-8" d="M247.87,588.66l7.46,4.85v16.38h-7.46v-21.23M247.73,588.4v21.63h7.75v-16.6l-7.75-5.04h0Z"/>
      <path class="cls-45" d="M248.34,589.98l6.55,4.28v14.4h-6.55v-18.67M248.21,589.73v19.05h6.82v-14.6l-6.82-4.45h0Z"/>
      <path class="cls-66" d="M248.82,591.3l5.64,3.7v12.41h-5.64v-16.11M248.69,591.06v16.48h5.9v-12.61l-5.9-3.87h0Z"/>
      <path class="cls-103" d="M249.29,592.62l4.73,3.13v10.43h-4.73v-13.55M249.17,592.4v13.9h4.98v-10.61l-4.98-3.28h0Z"/>
      <path class="cls-146" d="M249.77,593.94l3.83,2.55v8.44h-3.83v-10.99M249.65,593.73v11.32h4.05v-8.62l-4.05-2.7h0Z"/>
      <path class="cls-1" d="M250.24,595.26l2.92,1.97v6.46h-2.92v-8.43M250.13,595.06v8.74h3.13v-6.62l-3.13-2.12h0Z"/>
      <path class="cls-79" d="M250.72,596.59l2.01,1.39v4.47h-2.01v-5.87M250.62,596.39v6.16h2.21v-4.63l-2.21-1.53h0Z"/>
      <path class="cls-52" d="M251.19,597.91l1.1.81v2.49h-1.1v-3.3M251.1,597.72v3.58h1.29v-2.63l-1.29-.95h0Z"/>
      <path class="cls-50" d="M251.67,599.27l.19.19v.51h-.19v-.7M251.58,599.06v1h.36v-.64l-.36-.37h0Z"/>
    </g>
    <g>
      <path class="cls-26" d="M154.33,464.84v.82l-.25-.32-.06-.08v.1s0,.22,0,.22l-.08.09v-.59l.39-.24M154.37,464.77l-.46.28v.7l.15-.17v-.23s.31.4.31.4v-.98h0Z"/>
      <path class="cls-59" d="M154.86,464.18v2.34l-.78-.68-.07-.06v.09s0,.86,0,.86l-.3.25v-2.09l1.14-.71M154.9,464.11l-1.22.76v2.2l.38-.31v-.88s.84.74.84.74v-2.5h0Z"/>
      <path class="cls-116" d="M155.39,463.52v3.85l-1.3-1.01-.07-.06v.09s0,1.5,0,1.5l-.52.39v-3.57l1.89-1.19M155.44,463.44l-1.98,1.25v3.69l.61-.46v-1.52s1.37,1.07,1.37,1.07v-4.02h0Z"/>
      <path class="cls-76" d="M155.92,462.86v5.35l-1.83-1.35-.08-.06v.1s.01,2.14.01,2.14l-.74.53v-5.05l2.64-1.67M155.97,462.77l-2.74,1.73v5.18l.84-.6v-2.17s1.9,1.4,1.9,1.4v-5.54h0Z"/>
      <path class="cls-123" d="M156.45,462.2v6.85l-2.35-1.68-.09-.06v.11s.01,2.79.01,2.79l-.96.67v-6.53l3.39-2.14M156.5,462.1l-3.5,2.21v6.67l1.07-.75v-2.82s2.43,1.74,2.43,1.74v-7.06h0Z"/>
      <path class="cls-107" d="M156.98,461.54v8.35l-2.88-2.01-.09-.07v.11s.02,3.43.02,3.43l-1.18.81v-8.01l4.14-2.62M157.04,461.43l-4.26,2.7v8.16l1.3-.89-.02-3.46,2.97,2.07v-8.58h0Z"/>
      <path class="cls-104" d="M157.51,460.88v9.86l-3.41-2.34-.1-.07v.12s.02,4.07.02,4.07l-1.4.95v-9.5l4.89-3.1M157.57,460.76l-5.02,3.18v9.65l1.53-1.04-.02-4.11,3.51,2.41v-10.09h0Z"/>
      <path class="cls-105" d="M158.03,460.22v11.36l-3.93-2.67-.11-.07v.13s.02,4.72.02,4.72l-1.62,1.09v-10.98l5.64-3.58M158.1,460.1l-5.77,3.66v11.14l1.76-1.18-.02-4.75,4.04,2.74v-11.61h0Z"/>
      <path class="cls-67" d="M158.56,459.56v12.86l-4.46-3-.12-.08v.14s.03,5.36.03,5.36l-1.84,1.23v-12.46l6.39-4.05M158.64,459.43l-6.53,4.15v12.63l1.99-1.33-.02-5.4,4.57,3.08v-13.13h0Z"/>
      <path class="cls-113" d="M159.09,458.9v14.36l-4.98-3.33-.12-.08v.15s.03,6,.03,6l-2.06,1.37v-13.94l7.14-4.53M159.17,458.76l-7.29,4.63v14.12l2.22-1.47-.03-6.04,5.1,3.41v-14.65h0Z"/>
      <path class="cls-75" d="M159.62,458.24v15.86l-5.51-3.66-.13-.09v.16s.03,6.64.03,6.64l-2.28,1.51v-15.42l7.89-5.01M159.7,458.09l-8.05,5.11v15.62l2.45-1.62-.03-6.69,5.64,3.74v-16.17h0Z"/>
      <path class="cls-98" d="M160.15,457.58v17.36l-6.03-3.99-.14-.09v.16s.03,7.29.03,7.29l-2.5,1.65v-16.9l8.64-5.48M160.24,457.42l-8.81,5.6v17.11l2.68-1.76-.03-7.34,6.17,4.08v-17.68h0Z"/>
      <path class="cls-62" d="M160.68,456.92v18.86l-6.56-4.32-.14-.1v.17s.04,7.93.04,7.93l-2.72,1.78v-18.38l9.39-5.96M160.77,456.75l-9.57,6.08v18.6l2.9-1.91-.04-7.98,6.7,4.41v-19.2h0Z"/>
      <path class="cls-63" d="M161.21,456.26v20.36l-7.08-4.65-.15-.1v.18s.04,8.57.04,8.57l-2.94,1.92v-19.86l10.13-6.44M161.3,456.09l-10.33,6.56v20.09l3.13-2.05-.04-8.63,7.24,4.75v-20.72h0Z"/>
      <path class="cls-131" d="M161.74,455.6v21.86l-7.61-4.98-.16-.1v.19s.04,9.22.04,9.22l-3.16,2.06v-21.34l10.88-6.92M161.84,455.42l-11.09,7.05v21.58l3.36-2.2-.04-9.27,7.77,5.08v-22.24h0Z"/>
      <path class="cls-18" d="M162.26,454.94v23.36l-8.14-5.31-.17-.11v.2s.05,9.86.05,9.86l-3.38,2.2v-22.81l11.63-7.39M162.37,454.75l-11.85,7.53v23.07l3.59-2.34-.05-9.92,8.3,5.42v-23.76h0Z"/>
      <path class="cls-42" d="M162.79,454.28v24.86l-8.66-5.64-.17-.11v.21s.05,10.5.05,10.5l-3.6,2.34v-24.29l12.38-7.87M162.9,454.08l-12.61,8.01v24.56l3.82-2.49-.05-10.56,8.83,5.75v-25.27h0Z"/>
      <path class="cls-70" d="M163.32,453.62v26.37l-9.19-5.97-.18-.12v.22s.05,11.15.05,11.15l-3.82,2.48v-25.77l13.13-8.35M163.44,453.41l-13.37,8.5v26.05l4.05-2.63-.05-11.21,9.37,6.08v-26.79h0Z"/>
      <path class="cls-69" d="M163.85,452.96v27.87l-9.71-6.3-.19-.12v.22s.06,11.79.06,11.79l-4.04,2.62v-27.25l13.88-8.83M163.97,452.74l-14.13,8.98v27.54l4.28-2.78-.06-11.86,9.9,6.42v-28.31h0Z"/>
      <path class="cls-110" d="M164.38,452.3v29.37l-10.24-6.63-.2-.13v.23s.06,12.43.06,12.43l-4.26,2.76v-28.73l14.63-9.3M164.5,452.07l-14.88,9.46v29.04l4.51-2.92-.06-12.5,10.43,6.75v-29.83h0Z"/>
      <path class="cls-10" d="M164.91,451.65v30.87l-10.76-6.96-.2-.13v.24s.06,13.08.06,13.08l-4.48,2.9v-30.21l15.38-9.78M165.04,451.41l-15.64,9.95v30.53l4.74-3.07-.06-13.15,10.97,7.09v-31.35h0Z"/>
      <path class="cls-43" d="M165.44,450.99v32.37l-11.29-7.29-.21-.14v.25s.07,13.72.07,13.72l-4.7,3.03v-31.69l16.13-10.26M165.57,450.74l-16.4,10.43v32.02l4.97-3.21-.06-13.79,11.5,7.42v-32.87h0Z"/>
      <path class="cls-125" d="M165.96,450.33v33.87l-11.81-7.62-.22-.14v.26s.07,14.36.07,14.36l-4.92,3.17v-33.17l16.88-10.73M166.1,450.07l-17.16,10.91v33.51l5.2-3.35-.07-14.44,12.03,7.76v-34.38h0Z"/>
      <path class="cls-102" d="M166.49,449.67v35.37l-12.34-7.94-.23-.15v.27s.07,15,.07,15l-5.14,3.31v-34.65l17.63-11.21M166.64,449.4l-17.92,11.4v35l5.43-3.5-.07-15.08,12.56,8.09v-35.9h0Z"/>
      <path class="cls-54" d="M167.02,449.01v36.87l-12.86-8.27-.23-.15v.28s.07,15.65.07,15.65l-5.36,3.45v-36.13l18.38-11.69M167.17,448.73l-18.68,11.88v36.49l5.66-3.64-.07-15.73,13.1,8.42v-37.42h0Z"/>
      <path class="cls-16" d="M167.55,448.35v38.37l-13.39-8.6-.24-.15v.29s.08,16.29.08,16.29l-5.58,3.59v-37.61l19.13-12.17M167.71,448.06l-19.44,12.36v37.98l5.89-3.79-.08-16.38,13.63,8.76v-38.94h0Z"/>
      <path class="cls-119" d="M168.08,447.69v39.87l-13.92-8.93-.25-.16v.29s.08,16.93.08,16.93l-5.8,3.73v-39.09l19.88-12.64M168.24,447.4l-20.2,12.85v39.47l6.12-3.93-.08-17.02,14.16,9.09v-40.46h0Z"/>
      <path class="cls-84" d="M168.61,447.03v41.37l-14.44-9.26-.26-.16v.3s.08,17.58.08,17.58l-6.02,3.87v-40.57l20.63-13.12M168.77,446.73l-20.96,13.33v40.97l6.35-4.08-.08-17.67,14.7,9.43v-41.97h0Z"/>
      <path class="cls-136" d="M169.14,446.37v42.87l-14.97-9.59-.26-.17v.31s.09,18.22.09,18.22l-6.24,4.01v-42.05l21.38-13.6M169.31,446.06l-21.72,13.81v42.46l6.58-4.22-.09-18.31,15.23,9.76v-43.49h0Z"/>
      <path class="cls-41" d="M169.66,445.71v44.37l-15.49-9.92-.27-.17v.32s.09,18.86.09,18.86l-6.46,4.14v-43.53l22.13-14.07M169.84,445.39l-22.48,14.3v43.95l6.81-4.37-.09-18.96,15.76,10.09v-45.01h0Z"/>
      <path class="cls-121" d="M170.19,445.05v45.88l-16.02-10.25-.28-.18v.33s.09,19.51.09,19.51l-6.68,4.28v-45.01l22.88-14.55M170.37,444.72l-23.24,14.78v45.44l7.03-4.51-.09-19.61,16.29,10.43v-46.53h0Z"/>
      <path class="cls-34" d="M170.72,444.39v47.38l-16.54-10.58-.28-.18v.34s.1,20.15.1,20.15l-6.9,4.42v-46.49l23.63-15.03M170.91,444.05l-23.99,15.26v46.93l7.26-4.66-.1-20.25,16.83,10.76v-48.05h0Z"/>
      <path class="cls-139" d="M171.25,443.73v48.88l-17.07-10.91-.29-.19v.35s.1,20.79.1,20.79l-7.12,4.56v-47.97l24.38-15.51M171.44,443.39l-24.75,15.75v48.42l7.49-4.8-.1-20.9,17.36,11.1v-49.57h0Z"/>
      <path class="cls-155" d="M171.78,443.07v50.38l-17.59-11.24-.3-.19v.36s.1,21.44.1,21.44l-7.34,4.7v-49.45l25.13-15.98M171.97,442.72l-25.51,16.23v49.91l7.72-4.95-.1-21.54,17.89,11.43v-51.08h0Z"/>
      <path class="cls-23" d="M172.31,442.41v51.88l-18.12-11.57-.31-.2v.36s.11,22.08.11,22.08l-7.56,4.84v-50.93l25.88-16.46M172.51,442.05l-26.27,16.71v51.4l7.95-5.09-.1-22.19,18.42,11.77v-52.6h0Z"/>
      <path class="cls-82" d="M172.84,441.75v53.38l-18.64-11.9-.31-.2v.37s.11,22.72.11,22.72l-7.78,4.98v-52.41l26.63-16.94M173.04,441.38l-27.03,17.2v52.89l8.18-5.24-.11-22.83,18.96,12.1v-54.12h0Z"/>
      <path class="cls-137" d="M173.36,441.09v54.88l-19.17-12.23-.32-.21v.38s.11,23.37.11,23.37l-7.99,5.12v-53.89l27.37-17.41M173.57,440.71l-27.79,17.68v54.39l8.41-5.38-.11-23.48,19.49,12.43v-55.64h0Z"/>
      <path class="cls-151" d="M173.89,440.43v56.38l-19.7-12.56-.33-.21v.39s.12,24.01.12,24.01l-8.21,5.25v-55.37l28.12-17.89M174.11,440.04l-28.55,18.16v55.88l8.64-5.53-.11-24.13,20.02,12.77v-57.16h0Z"/>
      <path class="cls-147" d="M174.42,439.77v57.88l-20.22-12.89-.34-.21v.4s.12,24.65.12,24.65l-8.43,5.39v-56.85l28.87-18.37M174.64,439.38l-29.31,18.65v57.37l8.87-5.67-.12-24.77,20.56,13.1v-58.67h0Z"/>
      <path class="cls-33" d="M174.95,439.11v59.38l-20.75-13.22-.34-.22v.41s.12,25.29.12,25.29l-8.65,5.53v-58.33l29.62-18.85M175.17,438.71l-30.07,19.13v58.86l9.1-5.82-.12-25.42,21.09,13.44v-60.19h0Z"/>
      <path class="cls-94" d="M175.48,438.45v60.88l-21.27-13.55-.35-.22v.42s.12,25.94.12,25.94l-8.87,5.67v-59.81l30.37-19.32M175.71,438.04l-30.83,19.61v60.35l9.33-5.96-.12-26.06,21.62,13.77v-61.71h0Z"/>
      <path class="cls-96" d="M176.01,437.79v62.38l-21.8-13.88-.36-.23v.42s.13,26.58.13,26.58l-9.09,5.81v-61.29l31.12-19.8M176.24,437.37l-31.59,20.1v61.84l9.56-6.11-.13-26.71,22.15,14.11v-63.23h0Z"/>
      <path class="cls-117" d="M176.54,437.13v63.88l-22.32-14.21-.37-.23v.43s.13,27.22.13,27.22l-9.31,5.95v-62.77l31.87-20.28M176.77,436.7l-32.35,20.58v63.33l9.79-6.25-.13-27.35,22.69,14.44v-64.75h0Z"/>
      <path class="cls-101" d="M177.06,436.47v65.39l-22.85-14.54-.37-.24v.44s.13,27.87.13,27.87l-9.53,6.09v-64.25l32.62-20.75M177.31,436.03l-33.1,21.06v64.82l10.02-6.4-.13-28,23.22,14.77v-66.26h0Z"/>
      <path class="cls-138" d="M177.59,435.81v66.89l-23.37-14.87-.38-.24v.45s.14,28.51.14,28.51l-9.75,6.23v-65.73l33.37-21.23M177.84,435.36l-33.86,21.55v66.32l10.25-6.54-.14-28.65,23.75,15.11v-67.78h0Z"/>
      <path class="cls-135" d="M178.12,435.15v68.39l-23.9-15.2-.39-.25v.46s.14,29.15.14,29.15l-9.97,6.36v-67.21l34.12-21.71M178.37,434.7l-34.62,22.03v67.81l10.48-6.69-.14-29.29,24.29,15.44v-69.3h0Z"/>
      <path class="cls-6" d="M178.65,434.49v69.89l-24.42-15.53-.4-.25v.47s.14,29.8.14,29.8l-10.19,6.5v-68.69l34.87-22.19M178.91,434.03l-35.38,22.51v69.3l10.71-6.83-.14-29.94,24.82,15.78v-70.82h0Z"/>
      <path class="cls-51" d="M179.18,433.83v71.39l-24.95-15.86-.4-.26v.48s.15,30.44.15,30.44l-10.41,6.64v-70.17l35.62-22.66M179.44,433.36l-36.14,23v70.79l10.94-6.97-.14-30.58,25.35,16.11v-72.34h0Z"/>
      <path class="cls-99" d="M179.71,433.17v72.89l-25.48-16.19-.41-.26v.49s.15,31.08.15,31.08l-10.63,6.78v-71.65l36.37-23.14M179.97,432.69l-36.9,23.48v72.28l11.16-7.12-.15-31.23,25.88,16.45v-73.86h0Z"/>
      <path class="cls-35" d="M180.24,432.51v74.39l-26-16.52-.42-.27v.49s.15,31.73.15,31.73l-10.85,6.92v-73.13l37.12-23.62M180.51,432.02l-37.66,23.96v73.77l11.39-7.26-.15-31.87,26.42,16.78v-75.37h0Z"/>
      <path class="cls-12" d="M180.77,431.86v75.89l-26.53-16.85-.42-.27v.5s.16,32.37.16,32.37l-11.07,7.06v-74.61l37.87-24.09M181.04,431.35l-38.42,24.44v75.26l11.62-7.41-.15-32.52,26.95,17.11v-76.89h0Z"/>
      <path class="cls-77" d="M181.29,431.2v77.39l-27.05-17.18-.43-.27v.51s.16,33.01.16,33.01l-11.29,7.2v-76.09l38.62-24.57M181.57,430.69l-39.18,24.93v76.75l11.85-7.55-.16-33.17,27.48,17.45v-78.41h0Z"/>
      <path class="cls-87" d="M181.82,430.54v78.89l-27.58-17.51-.44-.28v.52s.16,33.65.16,33.65l-11.51,7.34v-77.57l39.37-25.05M182.11,430.02l-39.94,25.41v78.24l12.08-7.7-.16-33.81,28.01,17.78v-79.93h0Z"/>
      <path class="cls-28" d="M182.35,429.88v80.39l-28.1-17.84-.45-.28v.53s.16,34.3.16,34.3l-11.73,7.47v-79.05l40.12-25.53M182.64,429.35l-40.7,25.89v79.74l12.31-7.84-.16-34.46,28.55,18.12v-81.45h0Z"/>
      <path class="cls-47" d="M182.88,429.22v81.89l-28.63-18.16-.45-.29v.54s.17,34.94.17,34.94l-11.95,7.61v-80.53l40.87-26M183.17,428.68l-41.46,26.38v81.23l12.54-7.99-.17-35.1,29.08,18.45v-82.96h0Z"/>
      <path class="cls-118" d="M183.41,428.56v83.39l-29.15-18.49-.46-.29v.55s.17,35.58.17,35.58l-12.17,7.75v-82.01l41.62-26.48M183.71,428.01l-42.22,26.86v82.72l12.77-8.13-.17-35.75,29.61,18.79v-84.48h0Z"/>
      <path class="cls-14" d="M183.94,427.9v84.89l-29.68-18.82-.47-.3v.56s.17,36.23.17,36.23l-12.39,7.89v-83.49l42.37-26.96M184.24,427.34l-42.97,27.34v84.21l13-8.28-.17-36.39,30.15,19.12v-86h0Z"/>
      <path class="cls-132" d="M184.47,427.24v86.4l-30.2-19.15-.48-.3v.56s.18,36.87.18,36.87l-12.61,8.03v-84.97l43.12-27.43M184.77,426.68l-43.73,27.83v85.7l13.23-8.42-.17-37.04,30.68,19.45v-87.52h0Z"/>
      <path class="cls-92" d="M184.99,426.58v87.9l-30.73-19.48-.48-.31v.57s.18,37.51.18,37.51l-12.83,8.17v-86.45l43.87-27.91M185.31,426.01l-44.49,28.31v87.19l13.46-8.57-.18-37.69,31.21,19.79v-89.04h0Z"/>
      <path class="cls-32" d="M185.52,425.92v89.4l-31.26-19.81-.49-.31v.58s.18,38.16.18,38.16l-13.05,8.31v-87.93l44.62-28.39M185.84,425.34l-45.25,28.79v88.68l13.69-8.71-.18-38.33,31.74,20.12v-90.56h0Z"/>
      <path class="cls-140" d="M186.05,425.26v90.9l-31.78-20.14-.5-.32v.59s.19,38.8.19,38.8l-13.27,8.45v-89.41l45.36-28.87M186.37,424.67l-46.01,29.28v90.17l13.92-8.86-.18-38.98,32.28,20.46v-92.07h0Z"/>
      <path class="cls-40" d="M186.58,424.6v92.4l-32.31-20.47-.51-.32v.6s.19,39.44.19,39.44l-13.49,8.58v-90.89l46.11-29.34M186.91,424l-46.77,29.76v91.67l14.15-9-.19-39.62,32.81,20.79v-93.59h0Z"/>
      <path class="cls-27" d="M187.11,423.94v93.9l-32.83-20.8-.51-.33v.61s.19,40.09.19,40.09l-13.71,8.72v-92.37l46.86-29.82M187.44,423.33l-47.53,30.24v93.16l14.38-9.15-.19-40.27,33.34,21.13v-95.11h0Z"/>
      <path class="cls-95" d="M187.64,423.28v95.4l-33.36-21.13-.52-.33v.62s.2,40.73.2,40.73l-13.93,8.86v-93.85l47.61-30.3M187.97,422.66l-48.29,30.73v94.65l14.61-9.29-.19-40.92,33.88,21.46v-96.63h0Z"/>
      <path class="cls-31" d="M188.17,422.62v96.9l-33.88-21.46-.53-.33v.63s.2,41.37.2,41.37l-14.15,9v-95.33l48.36-30.78M188.51,422l-49.05,31.21v96.14l14.84-9.44-.2-41.56,34.41,21.79v-98.15h0Z"/>
      <path class="cls-126" d="M188.69,421.96v98.4l-34.41-21.79-.54-.34v.63s.2,42.02.2,42.02l-14.37,9.14v-96.81l49.11-31.25M189.04,421.33l-49.81,31.69v97.63l15.07-9.58-.2-42.21,34.94,22.13v-99.66h0Z"/>
      <path class="cls-153" d="M189.22,421.3v99.9l-34.93-22.12-.54-.34v.64s.2,42.66.2,42.66l-14.59,9.28v-98.29l49.86-31.73M189.57,420.66l-50.57,32.18v99.12l15.29-9.73-.2-42.85,35.47,22.46v-101.18h0Z"/>
    </g>
    <path class="cls-127" d="M73.95,566.11v83.84h41.66v-83.6s23.4-14.42,23.4-14.42v-27.21l-65.06,41.4ZM136.19,550.35l-22.05,13.6-1.34.82v82.36h-36.03v-79.48l59.43-37.81v20.51Z"/>
    <path class="cls-64" d="M189.57,476.07v48.79l2.81,1.79v-45.46l37.11,23.62v142.31h-39.93v2.81h42.74v-146.67l-42.74-27.2Z"/>
    <path class="cls-152" d="M192.39,523.32l-2.81-1.79-35.62-22.67v151.08h50.18v-119.15l-11.74-7.47ZM156.77,647.13v-143.14l32.81,20.88,2.81,1.79,8.93,5.68v114.79h-44.55Z"/>
    <g>
      <path class="cls-143" d="M132.3,596.83v.86h-.3v-.65l.3-.21M132.39,596.66l-.48.34v.78h.48v-1.12h0Z"/>
      <path class="cls-129" d="M132.81,595.53v3.4h-1.2v-2.61l1.2-.79M132.91,595.36l-1.39.91v2.75h1.39v-3.67h0Z"/>
      <path class="cls-111" d="M133.33,594.24v5.93h-2.1v-4.57l2.1-1.36M133.43,594.05l-2.3,1.49v4.72h2.3v-6.22h0Z"/>
      <path class="cls-148" d="M133.85,592.94v8.46h-2.99v-6.53l2.99-1.93M133.95,592.75l-3.21,2.07v6.69h3.21v-8.76h0Z"/>
      <path class="cls-150" d="M134.36,591.65v10.99h-3.89v-8.49l3.89-2.5M134.47,591.44l-4.12,2.65v8.66h4.12v-11.31h0Z"/>
      <path class="cls-100" d="M134.88,590.35v13.52h-4.79v-10.45l4.79-3.07M135,590.13l-5.03,3.23v10.63h5.03v-13.86h0Z"/>
      <path class="cls-142" d="M135.39,589.06v16.05h-5.69v-12.41l5.69-3.64M135.52,588.83l-5.94,3.81v12.6h5.94v-16.41h0Z"/>
      <path class="cls-83" d="M135.91,587.76v18.58h-6.58v-14.37l6.58-4.21M136.04,587.52l-6.85,4.38v14.57h6.85v-18.95h0Z"/>
      <path class="cls-49" d="M136.42,586.47v21.11h-7.48v-16.33l7.48-4.78M136.56,586.21l-7.76,4.96v16.54h7.76v-21.5h0Z"/>
      <path class="cls-115" d="M136.94,585.17v23.64h-8.38v-18.29l8.38-5.35M137.08,584.91l-8.67,5.54v18.51h8.67v-24.05h0Z"/>
      <path class="cls-46" d="M137.45,583.88v26.17h-9.28v-20.25l9.28-5.93M137.61,583.6l-9.58,6.12v20.48h9.58v-26.6h0Z"/>
      <path class="cls-144" d="M137.97,582.58v28.7h-10.17v-22.21l10.17-6.5M138.13,582.3l-10.49,6.7v22.45h10.49v-29.15h0Z"/>
      <path class="cls-24" d="M138.49,581.29v31.23h-11.07v-24.17l11.07-7.07M138.65,580.99l-11.4,7.27v24.42h11.4v-31.69h0Z"/>
      <path class="cls-86" d="M139,579.99v33.76h-11.97v-26.13l11.97-7.64M139.17,579.68l-12.31,7.85v26.39h12.31v-34.24h0Z"/>
      <path class="cls-55" d="M139.52,578.7v36.29h-12.86v-28.09l12.86-8.21M139.69,578.38l-13.22,8.43v28.36h13.22v-36.79h0Z"/>
      <path class="cls-3" d="M140.03,577.4v38.82h-13.76v-30.05l13.76-8.78M140.21,577.07l-14.13,9.01v30.33h14.13v-39.34h0Z"/>
      <path class="cls-145" d="M140.55,576.11v41.35h-14.66v-32.01l14.66-9.35M140.74,575.77l-15.04,9.59v32.3h15.04v-41.88h0Z"/>
      <path class="cls-120" d="M141.06,574.81v43.88h-15.56v-33.97l15.56-9.92M141.26,574.46l-15.95,10.17v34.27h15.95v-44.43h0Z"/>
      <path class="cls-48" d="M141.58,573.52v46.41h-16.45v-35.93l16.45-10.49M141.78,573.15l-16.86,10.74v36.24h16.86v-46.98h0Z"/>
      <path class="cls-93" d="M142.09,572.23v48.94h-17.35v-37.88l17.35-11.06M142.3,571.85l-17.77,11.32v38.21h17.77v-49.53h0Z"/>
      <path class="cls-5" d="M142.61,570.93v51.47h-18.25v-39.84l18.25-11.63M142.82,570.54l-18.68,11.9v40.18h18.68v-52.08h0Z"/>
      <path class="cls-38" d="M143.13,569.64v54h-19.15v-41.8l19.15-12.2M143.35,569.24l-19.59,12.48v42.14h19.59v-54.62h0Z"/>
      <path class="cls-90" d="M143.64,568.34v56.53h-20.04v-43.76l20.04-12.77M143.87,567.93l-20.5,13.06v44.11h20.5v-57.17h0Z"/>
      <path class="cls-149" d="M144.16,567.05v59.06h-20.94v-45.72l20.94-13.34M144.39,566.62l-21.41,13.64v46.08h21.41v-59.72h0Z"/>
      <path class="cls-25" d="M144.67,565.75v61.59h-21.84v-47.68l21.84-13.91M144.91,565.32l-22.32,14.21v48.05h22.32v-62.27h0Z"/>
      <path class="cls-11" d="M145.19,564.46v64.12h-22.73v-49.64l22.73-14.48M145.43,564.01l-23.22,14.79v50.02h23.22v-64.81h0Z"/>
      <path class="cls-19" d="M145.7,563.16v66.65h-23.63v-51.6l23.63-15.05M145.95,562.7l-24.13,15.37v51.99h24.13v-67.36h0Z"/>
      <path class="cls-15" d="M146.22,561.87v69.18h-24.53v-53.56l24.53-15.62M146.48,561.4l-25.04,15.95v53.96h25.04v-69.91h0Z"/>
      <path class="cls-124" d="M146.73,560.57v71.71h-25.43v-55.52l25.43-16.19M147,560.09l-25.95,16.53v55.93h25.95v-72.46h0Z"/>
      <path class="cls-65" d="M147.25,559.28v74.24h-26.32v-57.48l26.32-16.76M147.52,558.79l-26.86,17.1v57.9h26.86v-75.01h0Z"/>
      <path class="cls-97" d="M147.76,557.98v76.77h-27.22v-59.44l27.22-17.33M148.04,557.48l-27.77,17.68v59.87h27.77v-77.55h0Z"/>
      <path class="cls-85" d="M148.28,556.69v79.3h-28.12v-61.4l28.12-17.9M148.56,556.17l-28.68,18.26v61.84h28.68v-80.1h0Z"/>
      <path class="cls-154" d="M148.8,555.39v81.83h-29.02v-63.36l29.02-18.47M149.08,554.87l-29.59,18.84v63.81h29.59v-82.65h0Z"/>
      <path class="cls-128" d="M149.31,554.1v84.36h-29.91v-65.32l29.91-19.04M149.61,553.56l-30.5,19.42v65.78h30.5v-85.2h0Z"/>
      <path class="cls-74" d="M149.83,552.81v86.89h-30.81v-67.28l30.81-19.61M150.13,552.26l-31.41,20v67.75h31.41v-87.75h0Z"/>
      <path class="cls-53" d="M150.34,551.51v89.42h-31.71v-69.24l31.71-20.18M150.65,550.95l-32.32,20.57v69.72h32.32v-90.29h0Z"/>
      <path class="cls-81" d="M150.86,550.22v91.95h-32.61v-71.2l32.61-20.75M151.17,549.64l-33.23,21.15v71.69h33.23v-92.84h0Z"/>
      <path class="cls-20" d="M151.37,548.92v94.48h-33.5v-73.16l33.5-21.32M151.69,548.34l-34.14,21.73v73.66h34.14v-95.39h0Z"/>
      <path class="cls-134" d="M151.89,547.63v97.01h-34.4v-75.12l34.4-21.89M152.22,547.03l-35.05,22.31v75.63h35.05v-97.94h0Z"/>
      <path class="cls-36" d="M152.4,546.33v99.54h-35.3v-77.08l35.3-22.46M152.74,545.73l-35.96,22.89v77.6h35.96v-100.48h0Z"/>
      <path class="cls-91" d="M152.92,545.04v102.07h-36.19v-79.04l36.19-23.03M153.26,544.42l-36.87,23.47v79.57h36.87v-103.03h0Z"/>
      <path class="cls-17" d="M153.44,543.74v104.61h-37.09v-81l37.09-23.6M153.78,543.11l-37.78,24.04v81.54h37.78v-105.58h0Z"/>
      <path class="cls-44" d="M153.95,542.45v107.14h-37.99v-82.96l37.99-24.17M154.3,541.81l-38.69,24.62v83.51h38.69v-108.13h0Z"/>
    </g>
  </g>
</svg>