<svg width="65" height="65" viewBox="0 0 65 65" fill="none" xmlns="http://www.w3.org/2000/svg">
<path d="M2.69181 43.7214L2.69261 43.7203L23.6854 15.1688L20.6532 6.53512C20.6529 6.53431 20.6526 6.53349 20.6523 6.53267C20.1473 5.18345 20.3653 3.87284 21.2775 2.62851C22.1908 1.38261 23.4088 0.75 24.9121 0.75H40.0643C41.5675 0.75 42.7855 1.38261 43.6988 2.62851C44.6103 3.87194 44.8287 5.18155 44.3252 6.52974L41.5251 15.1665L62.2803 43.7157C63.7386 45.5014 64.3859 47.6129 64.2263 50.0346V53.5789C64.2263 56.4889 63.173 58.9994 61.0753 61.0978C58.9777 63.1962 56.4681 64.25 53.5592 64.25H11.4171C8.50819 64.25 5.99859 63.1962 3.90098 61.0978C1.80337 58.9994 0.75 56.4889 0.75 53.5789V50.0263C0.75 47.6108 1.39487 45.5054 2.69181 43.7214ZM59.4648 53.5789V53.5706L59.4653 53.5623L59.7015 50.0181C59.6997 48.6616 59.2485 47.4585 58.3412 46.3995L58.335 46.3923L58.3294 46.3846L37.57 18.0658H27.4063L6.64878 46.3821C6.64848 46.3825 6.64819 46.3829 6.64789 46.3834C5.88789 47.4482 5.42963 48.6654 5.2748 50.0403V53.5789C5.2748 55.2474 5.87833 56.6844 7.09564 57.9022C8.31294 59.12 9.74937 59.7237 11.4171 59.7237H53.5592C55.2265 59.7237 56.6204 59.1206 57.7567 57.908C58.8969 56.6913 59.4648 55.2525 59.4648 53.5789ZM40.3143 37.4737V37.7237H40.0643H28.4766V40.7763H38.8805C39.4282 40.7763 39.9564 41.0057 40.4611 41.4264C40.9731 41.8533 41.2613 42.3521 41.2613 42.9211V50.5C41.2613 51.2037 40.9932 51.7879 40.4611 52.2315C39.9564 52.6522 39.4282 52.8816 38.8805 52.8816H34.8689V55.7105V55.9605H34.6189H30.3574H30.1074V55.7105V52.8816H24.9121H24.6621V52.6316V48.6053V48.3553H24.9121H36.4997V45.3026H26.0958C25.4076 45.3026 24.8279 45.0852 24.3801 44.6373C23.9324 44.1893 23.715 43.6094 23.715 42.9211V35.3421C23.715 34.7904 23.9477 34.2954 24.3801 33.8627C24.8117 33.4309 25.3673 33.135 26.0352 32.968L26.065 32.9605H26.0958H30.1074V30.3684V30.1184H30.3574H34.6189H34.8689V30.3684V33.1974H40.0643H40.3143V33.4474V37.4737ZM27.9333 13.3026H37.043L39.7174 5.27631H25.2589L27.9333 13.3026Z" fill="#001B42" stroke="#001B42" stroke-width="0.5"/>
</svg>
